<svg xmlns="http://www.w3.org/2000/svg" xmlns:xlink="http://www.w3.org/1999/xlink" width="500" zoomAndPan="magnify" viewBox="0 0 375 374.999991" height="500" preserveAspectRatio="xMidYMid meet" version="1.2"><defs><clipPath id="39d51ea4a3"><path d="M 69 134 L 126 134 L 126 190 L 69 190 Z M 69 134 "/></clipPath><clipPath id="b4906600bf"><path d="M 67.765625 136.804688 L 122.800781 132.460938 L 127.144531 187.492188 L 72.113281 191.835938 Z M 67.765625 136.804688 "/></clipPath><clipPath id="6233b85769"><path d="M 95.285156 134.632812 C 80.085938 135.832031 68.738281 149.125 69.941406 164.320312 C 71.140625 179.515625 84.433594 190.863281 99.628906 189.664062 C 114.824219 188.464844 126.171875 175.171875 124.972656 159.976562 C 123.773438 144.777344 110.480469 133.433594 95.285156 134.632812 Z M 95.285156 134.632812 "/></clipPath><clipPath id="697b3982c9"><path d="M 67.765625 136.804688 L 122.800781 132.460938 L 127.144531 187.492188 L 72.113281 191.835938 Z M 67.765625 136.804688 "/></clipPath><clipPath id="c2a2f8a61b"><path d="M 67.765625 136.804688 L 122.800781 132.460938 L 127.144531 187.492188 L 72.113281 191.835938 Z M 67.765625 136.804688 "/></clipPath><linearGradient x1="-15.235203" gradientTransform="matrix(0.214971,-0.0169727,0.0169727,0.214971,67.767406,136.804397)" y1="128" x2="271.235193" gradientUnits="userSpaceOnUse" y2="128" id="2fe3b03a02"><stop style="stop-color:#38b6ff;stop-opacity:1;" offset="0"/><stop style="stop-color:#38b6ff;stop-opacity:1;" offset="0.0625"/><stop style="stop-color:#39b7ff;stop-opacity:1;" offset="0.078125"/><stop style="stop-color:#39b7fe;stop-opacity:1;" offset="0.09375"/><stop style="stop-color:#3ab8fe;stop-opacity:1;" offset="0.109375"/><stop style="stop-color:#3ab9fe;stop-opacity:1;" offset="0.125"/><stop style="stop-color:#3bb9fd;stop-opacity:1;" offset="0.140625"/><stop style="stop-color:#3bbafd;stop-opacity:1;" offset="0.15625"/><stop style="stop-color:#3cbbfd;stop-opacity:1;" offset="0.171875"/><stop style="stop-color:#3cbbfc;stop-opacity:1;" offset="0.1875"/><stop style="stop-color:#3dbcfc;stop-opacity:1;" offset="0.203125"/><stop style="stop-color:#3ebdfc;stop-opacity:1;" offset="0.21875"/><stop style="stop-color:#3ebdfb;stop-opacity:1;" offset="0.234375"/><stop style="stop-color:#3fbefb;stop-opacity:1;" offset="0.25"/><stop style="stop-color:#3fbffb;stop-opacity:1;" offset="0.265625"/><stop style="stop-color:#40bffb;stop-opacity:1;" offset="0.28125"/><stop style="stop-color:#40c0fa;stop-opacity:1;" offset="0.296875"/><stop style="stop-color:#41c0fa;stop-opacity:1;" offset="0.3125"/><stop style="stop-color:#41c1fa;stop-opacity:1;" offset="0.328125"/><stop style="stop-color:#42c2f9;stop-opacity:1;" offset="0.34375"/><stop style="stop-color:#42c2f9;stop-opacity:1;" offset="0.359375"/><stop style="stop-color:#43c3f9;stop-opacity:1;" offset="0.375"/><stop style="stop-color:#43c4f8;stop-opacity:1;" offset="0.390625"/><stop style="stop-color:#44c4f8;stop-opacity:1;" offset="0.40625"/><stop style="stop-color:#45c5f8;stop-opacity:1;" offset="0.421875"/><stop style="stop-color:#45c6f7;stop-opacity:1;" offset="0.4375"/><stop style="stop-color:#46c6f7;stop-opacity:1;" offset="0.453125"/><stop style="stop-color:#46c7f7;stop-opacity:1;" offset="0.46875"/><stop style="stop-color:#47c8f6;stop-opacity:1;" offset="0.484375"/><stop style="stop-color:#47c8f6;stop-opacity:1;" offset="0.5"/><stop style="stop-color:#48c9f6;stop-opacity:1;" offset="0.515625"/><stop style="stop-color:#48caf5;stop-opacity:1;" offset="0.53125"/><stop style="stop-color:#49caf5;stop-opacity:1;" offset="0.546875"/><stop style="stop-color:#49cbf5;stop-opacity:1;" offset="0.5625"/><stop style="stop-color:#4acbf5;stop-opacity:1;" offset="0.578125"/><stop style="stop-color:#4accf4;stop-opacity:1;" offset="0.59375"/><stop style="stop-color:#4bcdf4;stop-opacity:1;" offset="0.609375"/><stop style="stop-color:#4ccdf4;stop-opacity:1;" offset="0.625"/><stop style="stop-color:#4ccef3;stop-opacity:1;" offset="0.640625"/><stop style="stop-color:#4dcff3;stop-opacity:1;" offset="0.65625"/><stop style="stop-color:#4dcff3;stop-opacity:1;" offset="0.671875"/><stop style="stop-color:#4ed0f2;stop-opacity:1;" offset="0.6875"/><stop style="stop-color:#4ed1f2;stop-opacity:1;" offset="0.703125"/><stop style="stop-color:#4fd1f2;stop-opacity:1;" offset="0.71875"/><stop style="stop-color:#4fd2f1;stop-opacity:1;" offset="0.734375"/><stop style="stop-color:#50d3f1;stop-opacity:1;" offset="0.75"/><stop style="stop-color:#50d3f1;stop-opacity:1;" offset="0.765625"/><stop style="stop-color:#51d4f0;stop-opacity:1;" offset="0.78125"/><stop style="stop-color:#52d5f0;stop-opacity:1;" offset="0.796875"/><stop style="stop-color:#52d5f0;stop-opacity:1;" offset="0.8125"/><stop style="stop-color:#53d6ef;stop-opacity:1;" offset="0.828125"/><stop style="stop-color:#53d6ef;stop-opacity:1;" offset="0.84375"/><stop style="stop-color:#54d7ef;stop-opacity:1;" offset="0.859375"/><stop style="stop-color:#54d8ef;stop-opacity:1;" offset="0.875"/><stop style="stop-color:#55d8ee;stop-opacity:1;" offset="0.890625"/><stop style="stop-color:#55d9ee;stop-opacity:1;" offset="0.90625"/><stop style="stop-color:#56daee;stop-opacity:1;" offset="0.921875"/><stop style="stop-color:#56daed;stop-opacity:1;" offset="0.9375"/><stop style="stop-color:#57dbed;stop-opacity:1;" offset="1"/></linearGradient><clipPath id="923db170c1"><path d="M 56 180 L 91 180 L 91 215 L 56 215 Z M 56 180 "/></clipPath><clipPath id="7850fb9474"><path d="M 55.179688 181.996094 L 89.347656 179.300781 L 92.042969 213.464844 L 57.875 216.164062 Z M 55.179688 181.996094 "/></clipPath><clipPath id="d2a68168a8"><path d="M 72.261719 180.648438 C 62.828125 181.394531 55.78125 189.644531 56.527344 199.082031 C 57.273438 208.515625 65.523438 215.558594 74.960938 214.816406 C 84.394531 214.070312 91.441406 205.816406 90.695312 196.382812 C 89.949219 186.949219 81.699219 179.902344 72.261719 180.648438 Z M 72.261719 180.648438 "/></clipPath><clipPath id="f9f2fa0507"><path d="M 55.179688 181.996094 L 89.347656 179.300781 L 92.042969 213.464844 L 57.875 216.164062 Z M 55.179688 181.996094 "/></clipPath><clipPath id="9783be390f"><path d="M 55.179688 181.996094 L 89.347656 179.300781 L 92.042969 213.464844 L 57.875 216.164062 Z M 55.179688 181.996094 "/></clipPath><linearGradient x1="-15.235224" gradientTransform="matrix(0.133466,-0.0105376,0.0105376,0.133466,55.178973,181.997116)" y1="128" x2="271.235241" gradientUnits="userSpaceOnUse" y2="128" id="2f60427421"><stop style="stop-color:#f97316;stop-opacity:1;" offset="0"/><stop style="stop-color:#f97316;stop-opacity:1;" offset="0.03125"/><stop style="stop-color:#f97316;stop-opacity:1;" offset="0.046875"/><stop style="stop-color:#f97316;stop-opacity:1;" offset="0.0546875"/><stop style="stop-color:#f97417;stop-opacity:1;" offset="0.0585937"/><stop style="stop-color:#f97418;stop-opacity:1;" offset="0.0625"/><stop style="stop-color:#f97519;stop-opacity:1;" offset="0.0664062"/><stop style="stop-color:#f9751a;stop-opacity:1;" offset="0.0703125"/><stop style="stop-color:#f9761b;stop-opacity:1;" offset="0.0742188"/><stop style="stop-color:#f9761c;stop-opacity:1;" offset="0.078125"/><stop style="stop-color:#f9771d;stop-opacity:1;" offset="0.0820312"/><stop style="stop-color:#f9781e;stop-opacity:1;" offset="0.0859375"/><stop style="stop-color:#f9781e;stop-opacity:1;" offset="0.0898438"/><stop style="stop-color:#f9791f;stop-opacity:1;" offset="0.09375"/><stop style="stop-color:#f97920;stop-opacity:1;" offset="0.0976562"/><stop style="stop-color:#f97a21;stop-opacity:1;" offset="0.101562"/><stop style="stop-color:#f97a22;stop-opacity:1;" offset="0.105469"/><stop style="stop-color:#f97b23;stop-opacity:1;" offset="0.109375"/><stop style="stop-color:#f97b24;stop-opacity:1;" offset="0.113281"/><stop style="stop-color:#f97c25;stop-opacity:1;" offset="0.117188"/><stop style="stop-color:#f97c26;stop-opacity:1;" offset="0.121094"/><stop style="stop-color:#f87d27;stop-opacity:1;" offset="0.125"/><stop style="stop-color:#f87d27;stop-opacity:1;" offset="0.128906"/><stop style="stop-color:#f87e28;stop-opacity:1;" offset="0.132812"/><stop style="stop-color:#f87e29;stop-opacity:1;" offset="0.136719"/><stop style="stop-color:#f87f2a;stop-opacity:1;" offset="0.140625"/><stop style="stop-color:#f8802b;stop-opacity:1;" offset="0.144531"/><stop style="stop-color:#f8802c;stop-opacity:1;" offset="0.148438"/><stop style="stop-color:#f8812d;stop-opacity:1;" offset="0.152344"/><stop style="stop-color:#f8812e;stop-opacity:1;" offset="0.15625"/><stop style="stop-color:#f8822f;stop-opacity:1;" offset="0.160156"/><stop style="stop-color:#f88230;stop-opacity:1;" offset="0.164062"/><stop style="stop-color:#f88331;stop-opacity:1;" offset="0.167969"/><stop style="stop-color:#f88331;stop-opacity:1;" offset="0.171875"/><stop style="stop-color:#f88432;stop-opacity:1;" offset="0.175781"/><stop style="stop-color:#f88433;stop-opacity:1;" offset="0.179688"/><stop style="stop-color:#f88534;stop-opacity:1;" offset="0.183594"/><stop style="stop-color:#f88535;stop-opacity:1;" offset="0.1875"/><stop style="stop-color:#f88636;stop-opacity:1;" offset="0.191406"/><stop style="stop-color:#f88737;stop-opacity:1;" offset="0.195312"/><stop style="stop-color:#f88738;stop-opacity:1;" offset="0.199219"/><stop style="stop-color:#f88839;stop-opacity:1;" offset="0.203125"/><stop style="stop-color:#f8883a;stop-opacity:1;" offset="0.207031"/><stop style="stop-color:#f8893a;stop-opacity:1;" offset="0.210938"/><stop style="stop-color:#f8893b;stop-opacity:1;" offset="0.214844"/><stop style="stop-color:#f88a3c;stop-opacity:1;" offset="0.21875"/><stop style="stop-color:#f88a3d;stop-opacity:1;" offset="0.222656"/><stop style="stop-color:#f88b3e;stop-opacity:1;" offset="0.226562"/><stop style="stop-color:#f88b3f;stop-opacity:1;" offset="0.230469"/><stop style="stop-color:#f88c40;stop-opacity:1;" offset="0.234375"/><stop style="stop-color:#f88c41;stop-opacity:1;" offset="0.238281"/><stop style="stop-color:#f88d42;stop-opacity:1;" offset="0.242188"/><stop style="stop-color:#f88e43;stop-opacity:1;" offset="0.246094"/><stop style="stop-color:#f88e44;stop-opacity:1;" offset="0.25"/><stop style="stop-color:#f88f44;stop-opacity:1;" offset="0.253906"/><stop style="stop-color:#f88f45;stop-opacity:1;" offset="0.257812"/><stop style="stop-color:#f89046;stop-opacity:1;" offset="0.261719"/><stop style="stop-color:#f89047;stop-opacity:1;" offset="0.265625"/><stop style="stop-color:#f89148;stop-opacity:1;" offset="0.269531"/><stop style="stop-color:#f89149;stop-opacity:1;" offset="0.273438"/><stop style="stop-color:#f8924a;stop-opacity:1;" offset="0.277344"/><stop style="stop-color:#f8924b;stop-opacity:1;" offset="0.28125"/><stop style="stop-color:#f8934c;stop-opacity:1;" offset="0.285156"/><stop style="stop-color:#f8934d;stop-opacity:1;" offset="0.289062"/><stop style="stop-color:#f8944d;stop-opacity:1;" offset="0.292969"/><stop style="stop-color:#f8954e;stop-opacity:1;" offset="0.296875"/><stop style="stop-color:#f8954f;stop-opacity:1;" offset="0.300781"/><stop style="stop-color:#f89650;stop-opacity:1;" offset="0.304688"/><stop style="stop-color:#f79651;stop-opacity:1;" offset="0.308594"/><stop style="stop-color:#f79752;stop-opacity:1;" offset="0.3125"/><stop style="stop-color:#f79753;stop-opacity:1;" offset="0.316406"/><stop style="stop-color:#f79854;stop-opacity:1;" offset="0.320312"/><stop style="stop-color:#f79855;stop-opacity:1;" offset="0.324219"/><stop style="stop-color:#f79956;stop-opacity:1;" offset="0.328125"/><stop style="stop-color:#f79957;stop-opacity:1;" offset="0.332031"/><stop style="stop-color:#f79a57;stop-opacity:1;" offset="0.335938"/><stop style="stop-color:#f79a58;stop-opacity:1;" offset="0.339844"/><stop style="stop-color:#f79b59;stop-opacity:1;" offset="0.34375"/><stop style="stop-color:#f79c5a;stop-opacity:1;" offset="0.347656"/><stop style="stop-color:#f79c5b;stop-opacity:1;" offset="0.351562"/><stop style="stop-color:#f79d5c;stop-opacity:1;" offset="0.355469"/><stop style="stop-color:#f79d5d;stop-opacity:1;" offset="0.359375"/><stop style="stop-color:#f79e5e;stop-opacity:1;" offset="0.363281"/><stop style="stop-color:#f79e5f;stop-opacity:1;" offset="0.367188"/><stop style="stop-color:#f79f60;stop-opacity:1;" offset="0.371094"/><stop style="stop-color:#f79f60;stop-opacity:1;" offset="0.375"/><stop style="stop-color:#f7a061;stop-opacity:1;" offset="0.378906"/><stop style="stop-color:#f7a062;stop-opacity:1;" offset="0.382812"/><stop style="stop-color:#f7a163;stop-opacity:1;" offset="0.386719"/><stop style="stop-color:#f7a164;stop-opacity:1;" offset="0.390625"/><stop style="stop-color:#f7a265;stop-opacity:1;" offset="0.394531"/><stop style="stop-color:#f7a266;stop-opacity:1;" offset="0.398438"/><stop style="stop-color:#f7a367;stop-opacity:1;" offset="0.402344"/><stop style="stop-color:#f7a468;stop-opacity:1;" offset="0.40625"/><stop style="stop-color:#f7a469;stop-opacity:1;" offset="0.410156"/><stop style="stop-color:#f7a56a;stop-opacity:1;" offset="0.414062"/><stop style="stop-color:#f7a56a;stop-opacity:1;" offset="0.417969"/><stop style="stop-color:#f7a66b;stop-opacity:1;" offset="0.421875"/><stop style="stop-color:#f7a66c;stop-opacity:1;" offset="0.425781"/><stop style="stop-color:#f7a76d;stop-opacity:1;" offset="0.429688"/><stop style="stop-color:#f7a76e;stop-opacity:1;" offset="0.433594"/><stop style="stop-color:#f7a86f;stop-opacity:1;" offset="0.4375"/><stop style="stop-color:#f7a870;stop-opacity:1;" offset="0.441406"/><stop style="stop-color:#f7a971;stop-opacity:1;" offset="0.445312"/><stop style="stop-color:#f7a972;stop-opacity:1;" offset="0.449219"/><stop style="stop-color:#f7aa73;stop-opacity:1;" offset="0.453125"/><stop style="stop-color:#f7ab74;stop-opacity:1;" offset="0.457031"/><stop style="stop-color:#f7ab74;stop-opacity:1;" offset="0.460938"/><stop style="stop-color:#f7ac75;stop-opacity:1;" offset="0.464844"/><stop style="stop-color:#f7ac76;stop-opacity:1;" offset="0.46875"/><stop style="stop-color:#f7ad77;stop-opacity:1;" offset="0.472656"/><stop style="stop-color:#f7ad78;stop-opacity:1;" offset="0.476562"/><stop style="stop-color:#f7ae79;stop-opacity:1;" offset="0.480469"/><stop style="stop-color:#f7ae7a;stop-opacity:1;" offset="0.484375"/><stop style="stop-color:#f7af7b;stop-opacity:1;" offset="0.488281"/><stop style="stop-color:#f6af7c;stop-opacity:1;" offset="0.492187"/><stop style="stop-color:#f6b07d;stop-opacity:1;" offset="0.496094"/><stop style="stop-color:#f6b07d;stop-opacity:1;" offset="0.5"/><stop style="stop-color:#f6b17e;stop-opacity:1;" offset="0.503906"/><stop style="stop-color:#f6b27f;stop-opacity:1;" offset="0.507812"/><stop style="stop-color:#f6b280;stop-opacity:1;" offset="0.511719"/><stop style="stop-color:#f6b381;stop-opacity:1;" offset="0.515625"/><stop style="stop-color:#f6b382;stop-opacity:1;" offset="0.519531"/><stop style="stop-color:#f6b483;stop-opacity:1;" offset="0.523437"/><stop style="stop-color:#f6b484;stop-opacity:1;" offset="0.527344"/><stop style="stop-color:#f6b585;stop-opacity:1;" offset="0.53125"/><stop style="stop-color:#f6b586;stop-opacity:1;" offset="0.535156"/><stop style="stop-color:#f6b687;stop-opacity:1;" offset="0.539062"/><stop style="stop-color:#f6b687;stop-opacity:1;" offset="0.542969"/><stop style="stop-color:#f6b788;stop-opacity:1;" offset="0.546875"/><stop style="stop-color:#f6b789;stop-opacity:1;" offset="0.550781"/><stop style="stop-color:#f6b88a;stop-opacity:1;" offset="0.554688"/><stop style="stop-color:#f6b98b;stop-opacity:1;" offset="0.558594"/><stop style="stop-color:#f6b98c;stop-opacity:1;" offset="0.5625"/><stop style="stop-color:#f6ba8d;stop-opacity:1;" offset="0.566406"/><stop style="stop-color:#f6ba8e;stop-opacity:1;" offset="0.570312"/><stop style="stop-color:#f6bb8f;stop-opacity:1;" offset="0.574219"/><stop style="stop-color:#f6bb90;stop-opacity:1;" offset="0.578125"/><stop style="stop-color:#f6bc90;stop-opacity:1;" offset="0.582031"/><stop style="stop-color:#f6bc91;stop-opacity:1;" offset="0.585938"/><stop style="stop-color:#f6bd92;stop-opacity:1;" offset="0.589844"/><stop style="stop-color:#f6bd93;stop-opacity:1;" offset="0.59375"/><stop style="stop-color:#f6be94;stop-opacity:1;" offset="0.597656"/><stop style="stop-color:#f6be95;stop-opacity:1;" offset="0.601562"/><stop style="stop-color:#f6bf96;stop-opacity:1;" offset="0.605469"/><stop style="stop-color:#f6c097;stop-opacity:1;" offset="0.609375"/><stop style="stop-color:#f6c098;stop-opacity:1;" offset="0.613281"/><stop style="stop-color:#f6c199;stop-opacity:1;" offset="0.617187"/><stop style="stop-color:#f6c19a;stop-opacity:1;" offset="0.621094"/><stop style="stop-color:#f6c29a;stop-opacity:1;" offset="0.625"/><stop style="stop-color:#f6c29b;stop-opacity:1;" offset="0.628906"/><stop style="stop-color:#f6c39c;stop-opacity:1;" offset="0.632812"/><stop style="stop-color:#f6c39d;stop-opacity:1;" offset="0.636719"/><stop style="stop-color:#f6c49e;stop-opacity:1;" offset="0.640625"/><stop style="stop-color:#f6c49f;stop-opacity:1;" offset="0.644531"/><stop style="stop-color:#f6c5a0;stop-opacity:1;" offset="0.648438"/><stop style="stop-color:#f6c5a1;stop-opacity:1;" offset="0.652344"/><stop style="stop-color:#f6c6a2;stop-opacity:1;" offset="0.65625"/><stop style="stop-color:#f6c6a3;stop-opacity:1;" offset="0.660156"/><stop style="stop-color:#f6c7a3;stop-opacity:1;" offset="0.664062"/><stop style="stop-color:#f6c8a4;stop-opacity:1;" offset="0.667969"/><stop style="stop-color:#f6c8a5;stop-opacity:1;" offset="0.671875"/><stop style="stop-color:#f6c9a6;stop-opacity:1;" offset="0.675781"/><stop style="stop-color:#f5c9a7;stop-opacity:1;" offset="0.679688"/><stop style="stop-color:#f5caa8;stop-opacity:1;" offset="0.683594"/><stop style="stop-color:#f5caa9;stop-opacity:1;" offset="0.6875"/><stop style="stop-color:#f5cbaa;stop-opacity:1;" offset="0.691406"/><stop style="stop-color:#f5cbab;stop-opacity:1;" offset="0.695313"/><stop style="stop-color:#f5ccac;stop-opacity:1;" offset="0.699219"/><stop style="stop-color:#f5ccad;stop-opacity:1;" offset="0.703125"/><stop style="stop-color:#f5cdad;stop-opacity:1;" offset="0.707031"/><stop style="stop-color:#f5cdae;stop-opacity:1;" offset="0.710937"/><stop style="stop-color:#f5ceaf;stop-opacity:1;" offset="0.714844"/><stop style="stop-color:#f5cfb0;stop-opacity:1;" offset="0.71875"/><stop style="stop-color:#f5cfb1;stop-opacity:1;" offset="0.722656"/><stop style="stop-color:#f5d0b2;stop-opacity:1;" offset="0.726562"/><stop style="stop-color:#f5d0b3;stop-opacity:1;" offset="0.730469"/><stop style="stop-color:#f5d1b4;stop-opacity:1;" offset="0.734375"/><stop style="stop-color:#f5d1b5;stop-opacity:1;" offset="0.738281"/><stop style="stop-color:#f5d2b6;stop-opacity:1;" offset="0.742188"/><stop style="stop-color:#f5d2b6;stop-opacity:1;" offset="0.746094"/><stop style="stop-color:#f5d3b7;stop-opacity:1;" offset="0.75"/><stop style="stop-color:#f5d3b8;stop-opacity:1;" offset="0.753906"/><stop style="stop-color:#f5d4b9;stop-opacity:1;" offset="0.757812"/><stop style="stop-color:#f5d4ba;stop-opacity:1;" offset="0.761719"/><stop style="stop-color:#f5d5bb;stop-opacity:1;" offset="0.765625"/><stop style="stop-color:#f5d6bc;stop-opacity:1;" offset="0.769531"/><stop style="stop-color:#f5d6bd;stop-opacity:1;" offset="0.773438"/><stop style="stop-color:#f5d7be;stop-opacity:1;" offset="0.777344"/><stop style="stop-color:#f5d7bf;stop-opacity:1;" offset="0.78125"/><stop style="stop-color:#f5d8c0;stop-opacity:1;" offset="0.785156"/><stop style="stop-color:#f5d8c0;stop-opacity:1;" offset="0.789063"/><stop style="stop-color:#f5d9c1;stop-opacity:1;" offset="0.792969"/><stop style="stop-color:#f5d9c2;stop-opacity:1;" offset="0.796875"/><stop style="stop-color:#f5dac3;stop-opacity:1;" offset="0.800781"/><stop style="stop-color:#f5dac4;stop-opacity:1;" offset="0.804687"/><stop style="stop-color:#f5dbc5;stop-opacity:1;" offset="0.808594"/><stop style="stop-color:#f5dbc6;stop-opacity:1;" offset="0.8125"/><stop style="stop-color:#f5dcc7;stop-opacity:1;" offset="0.816406"/><stop style="stop-color:#f5ddc8;stop-opacity:1;" offset="0.820312"/><stop style="stop-color:#f5ddc9;stop-opacity:1;" offset="0.824219"/><stop style="stop-color:#f5dec9;stop-opacity:1;" offset="0.828125"/><stop style="stop-color:#f5deca;stop-opacity:1;" offset="0.832031"/><stop style="stop-color:#f5dfcb;stop-opacity:1;" offset="0.835938"/><stop style="stop-color:#f5dfcc;stop-opacity:1;" offset="0.839844"/><stop style="stop-color:#f5e0cd;stop-opacity:1;" offset="0.84375"/><stop style="stop-color:#f5e0ce;stop-opacity:1;" offset="0.847656"/><stop style="stop-color:#f5e1cf;stop-opacity:1;" offset="0.851562"/><stop style="stop-color:#f5e1d0;stop-opacity:1;" offset="0.855469"/><stop style="stop-color:#f5e2d1;stop-opacity:1;" offset="0.859375"/><stop style="stop-color:#f4e2d2;stop-opacity:1;" offset="0.863281"/><stop style="stop-color:#f4e3d3;stop-opacity:1;" offset="0.867188"/><stop style="stop-color:#f4e3d3;stop-opacity:1;" offset="0.871094"/><stop style="stop-color:#f4e4d4;stop-opacity:1;" offset="0.875"/><stop style="stop-color:#f4e5d5;stop-opacity:1;" offset="0.878906"/><stop style="stop-color:#f4e5d6;stop-opacity:1;" offset="0.882813"/><stop style="stop-color:#f4e6d7;stop-opacity:1;" offset="0.886719"/><stop style="stop-color:#f4e6d8;stop-opacity:1;" offset="0.890625"/><stop style="stop-color:#f4e7d9;stop-opacity:1;" offset="0.894531"/><stop style="stop-color:#f4e7da;stop-opacity:1;" offset="0.898438"/><stop style="stop-color:#f4e8db;stop-opacity:1;" offset="0.902344"/><stop style="stop-color:#f4e8dc;stop-opacity:1;" offset="0.90625"/><stop style="stop-color:#f4e9dc;stop-opacity:1;" offset="0.910156"/><stop style="stop-color:#f4e9dd;stop-opacity:1;" offset="0.914062"/><stop style="stop-color:#f4eade;stop-opacity:1;" offset="0.917969"/><stop style="stop-color:#f4eadf;stop-opacity:1;" offset="0.921875"/><stop style="stop-color:#f4ebe0;stop-opacity:1;" offset="0.925781"/><stop style="stop-color:#f4ece1;stop-opacity:1;" offset="0.929688"/><stop style="stop-color:#f4ece2;stop-opacity:1;" offset="0.933594"/><stop style="stop-color:#f4ede3;stop-opacity:1;" offset="0.9375"/><stop style="stop-color:#f4ede4;stop-opacity:1;" offset="0.941406"/><stop style="stop-color:#f4eee5;stop-opacity:1;" offset="0.945312"/><stop style="stop-color:#f4eee5;stop-opacity:1;" offset="0.953125"/><stop style="stop-color:#f4eee5;stop-opacity:1;" offset="0.96875"/><stop style="stop-color:#f4eee5;stop-opacity:1;" offset="1"/></linearGradient><clipPath id="aad674e53a"><path d="M 44 120 L 127 120 L 127 222 L 44 222 Z M 44 120 "/></clipPath><clipPath id="11b36b2b1f"><path d="M 39.207031 124.625 L 123.695312 117.953125 L 131.605469 218.140625 L 47.117188 224.8125 Z M 39.207031 124.625 "/></clipPath><clipPath id="736635f2f9"><path d="M 39.207031 124.625 L 123.695312 117.953125 L 131.605469 218.140625 L 47.117188 224.8125 Z M 39.207031 124.625 "/></clipPath></defs><g id="3ad73b5e62"><g style="fill:#111827;fill-opacity:1;"><g transform="translate(43.379388, 246.113597)"><path style="stroke:none" d="M 1.984375 -12.171875 L 6.9375 -12.171875 C 8.226562 -12.171875 9.363281 -11.910156 10.34375 -11.390625 C 11.332031 -10.878906 12.097656 -10.160156 12.640625 -9.234375 C 13.179688 -8.316406 13.453125 -7.269531 13.453125 -6.09375 C 13.453125 -4.90625 13.179688 -3.847656 12.640625 -2.921875 C 12.097656 -2.003906 11.332031 -1.285156 10.34375 -0.765625 C 9.363281 -0.253906 8.226562 0 6.9375 0 L 1.984375 0 Z M 6.875 -1.109375 C 7.9375 -1.109375 8.867188 -1.316406 9.671875 -1.734375 C 10.472656 -2.160156 11.09375 -2.75 11.53125 -3.5 C 11.96875 -4.25 12.1875 -5.113281 12.1875 -6.09375 C 12.1875 -7.0625 11.96875 -7.921875 11.53125 -8.671875 C 11.09375 -9.421875 10.472656 -10.003906 9.671875 -10.421875 C 8.867188 -10.847656 7.9375 -11.0625 6.875 -11.0625 L 3.265625 -11.0625 L 3.265625 -1.109375 Z M 6.875 -1.109375 "/></g></g><g style="fill:#111827;fill-opacity:1;"><g transform="translate(59.664891, 246.113597)"><path style="stroke:none" d="M 10.59375 -1.109375 L 10.59375 0 L 1.984375 0 L 1.984375 -12.171875 L 10.328125 -12.171875 L 10.328125 -11.0625 L 3.265625 -11.0625 L 3.265625 -6.734375 L 9.5625 -6.734375 L 9.5625 -5.640625 L 3.265625 -5.640625 L 3.265625 -1.109375 Z M 10.59375 -1.109375 "/></g></g><g style="fill:#111827;fill-opacity:1;"><g transform="translate(73.221904, 246.113597)"><path style="stroke:none" d="M 10.296875 0 L 7.515625 -3.90625 C 7.203125 -3.875 6.875 -3.859375 6.53125 -3.859375 L 3.265625 -3.859375 L 3.265625 0 L 1.984375 0 L 1.984375 -12.171875 L 6.53125 -12.171875 C 8.09375 -12.171875 9.3125 -11.800781 10.1875 -11.0625 C 11.070312 -10.320312 11.515625 -9.300781 11.515625 -8 C 11.515625 -7.050781 11.269531 -6.25 10.78125 -5.59375 C 10.300781 -4.9375 9.617188 -4.460938 8.734375 -4.171875 L 11.703125 0 Z M 6.5 -4.953125 C 7.707031 -4.953125 8.628906 -5.21875 9.265625 -5.75 C 9.898438 -6.289062 10.21875 -7.039062 10.21875 -8 C 10.21875 -8.988281 9.898438 -9.742188 9.265625 -10.265625 C 8.628906 -10.796875 7.707031 -11.0625 6.5 -11.0625 L 3.265625 -11.0625 L 3.265625 -4.953125 Z M 6.5 -4.953125 "/></g></g><g style="fill:#111827;fill-opacity:1;"><g transform="translate(87.717379, 246.113597)"><path style="stroke:none" d=""/></g></g><g style="fill:#111827;fill-opacity:1;"><g transform="translate(94.203604, 246.113597)"><path style="stroke:none" d="M 12.609375 -12.171875 L 12.609375 0 L 9.796875 0 L 9.796875 -4.984375 L 4.265625 -4.984375 L 4.265625 0 L 1.4375 0 L 1.4375 -12.171875 L 4.265625 -12.171875 L 4.265625 -7.375 L 9.796875 -7.375 L 9.796875 -12.171875 Z M 12.609375 -12.171875 "/></g></g><g style="fill:#111827;fill-opacity:1;"><g transform="translate(110.176293, 246.113597)"><path style="stroke:none" d="M 1.4375 -12.171875 L 4.265625 -12.171875 L 4.265625 0 L 1.4375 0 Z M 1.4375 -12.171875 "/></g></g><g style="fill:#111827;fill-opacity:1;"><g transform="translate(117.807099, 246.113597)"><path style="stroke:none" d="M 1.4375 -12.171875 L 4.265625 -12.171875 L 4.265625 -2.296875 L 10.359375 -2.296875 L 10.359375 0 L 1.4375 0 Z M 1.4375 -12.171875 "/></g></g><g style="fill:#111827;fill-opacity:1;"><g transform="translate(130.234489, 246.113597)"><path style="stroke:none" d="M 4.265625 -9.90625 L 4.265625 -6.703125 L 9.890625 -6.703125 L 9.890625 -4.4375 L 4.265625 -4.4375 L 4.265625 0 L 1.4375 0 L 1.4375 -12.171875 L 10.640625 -12.171875 L 10.640625 -9.90625 Z M 4.265625 -9.90625 "/></g></g><g style="fill:#111827;fill-opacity:1;"><g transform="translate(143.270132, 246.113597)"><path style="stroke:none" d="M 5.4375 0.203125 C 4.476562 0.203125 3.546875 0.0703125 2.640625 -0.1875 C 1.742188 -0.445312 1.023438 -0.785156 0.484375 -1.203125 L 1.4375 -3.328125 C 1.957031 -2.941406 2.578125 -2.628906 3.296875 -2.390625 C 4.015625 -2.160156 4.734375 -2.046875 5.453125 -2.046875 C 6.253906 -2.046875 6.847656 -2.164062 7.234375 -2.40625 C 7.617188 -2.644531 7.8125 -2.960938 7.8125 -3.359375 C 7.8125 -3.648438 7.695312 -3.890625 7.46875 -4.078125 C 7.238281 -4.265625 6.945312 -4.414062 6.59375 -4.53125 C 6.238281 -4.65625 5.765625 -4.785156 5.171875 -4.921875 C 4.242188 -5.140625 3.484375 -5.359375 2.890625 -5.578125 C 2.296875 -5.796875 1.785156 -6.148438 1.359375 -6.640625 C 0.941406 -7.128906 0.734375 -7.78125 0.734375 -8.59375 C 0.734375 -9.300781 0.921875 -9.941406 1.296875 -10.515625 C 1.679688 -11.085938 2.257812 -11.539062 3.03125 -11.875 C 3.800781 -12.207031 4.742188 -12.375 5.859375 -12.375 C 6.640625 -12.375 7.398438 -12.28125 8.140625 -12.09375 C 8.878906 -11.914062 9.53125 -11.648438 10.09375 -11.296875 L 9.21875 -9.171875 C 8.09375 -9.804688 6.96875 -10.125 5.84375 -10.125 C 5.050781 -10.125 4.46875 -9.992188 4.09375 -9.734375 C 3.71875 -9.484375 3.53125 -9.148438 3.53125 -8.734375 C 3.53125 -8.316406 3.742188 -8.003906 4.171875 -7.796875 C 4.609375 -7.597656 5.273438 -7.398438 6.171875 -7.203125 C 7.097656 -6.984375 7.859375 -6.757812 8.453125 -6.53125 C 9.046875 -6.3125 9.550781 -5.960938 9.96875 -5.484375 C 10.394531 -5.015625 10.609375 -4.375 10.609375 -3.5625 C 10.609375 -2.863281 10.410156 -2.226562 10.015625 -1.65625 C 9.628906 -1.082031 9.046875 -0.628906 8.265625 -0.296875 C 7.492188 0.0351562 6.550781 0.203125 5.4375 0.203125 Z M 5.4375 0.203125 "/></g></g><g style="fill:#111827;fill-opacity:1;"><g transform="translate(156.288404, 246.113597)"><path style="stroke:none" d="M 12.515625 0 L 12.5 -7.296875 L 8.921875 -1.28125 L 7.65625 -1.28125 L 4.09375 -7.140625 L 4.09375 0 L 1.4375 0 L 1.4375 -12.171875 L 3.78125 -12.171875 L 8.328125 -4.609375 L 12.8125 -12.171875 L 15.125 -12.171875 L 15.171875 0 Z M 12.515625 0 "/></g></g><g style="fill:#111827;fill-opacity:1;"><g transform="translate(174.815793, 246.113597)"><path style="stroke:none" d="M 1.4375 -12.171875 L 4.265625 -12.171875 L 4.265625 0 L 1.4375 0 Z M 1.4375 -12.171875 "/></g></g><g style="fill:#111827;fill-opacity:1;"><g transform="translate(182.446598, 246.113597)"><path style="stroke:none" d="M 3.96875 -9.875 L 0.0625 -9.875 L 0.0625 -12.171875 L 10.671875 -12.171875 L 10.671875 -9.875 L 6.78125 -9.875 L 6.78125 0 L 3.96875 0 Z M 3.96875 -9.875 "/></g></g><g style="fill:#111827;fill-opacity:1;"><g transform="translate(195.11729, 246.113597)"><path style="stroke:none" d="M 3.96875 -9.875 L 0.0625 -9.875 L 0.0625 -12.171875 L 10.671875 -12.171875 L 10.671875 -9.875 L 6.78125 -9.875 L 6.78125 0 L 3.96875 0 Z M 3.96875 -9.875 "/></g></g><g style="fill:#111827;fill-opacity:1;"><g transform="translate(207.787982, 246.113597)"><path style="stroke:none" d="M 10.875 -2.265625 L 10.875 0 L 1.4375 0 L 1.4375 -12.171875 L 10.640625 -12.171875 L 10.640625 -9.90625 L 4.25 -9.90625 L 4.25 -7.265625 L 9.890625 -7.265625 L 9.890625 -5.078125 L 4.25 -5.078125 L 4.25 -2.265625 Z M 10.875 -2.265625 "/></g></g><g style="fill:#111827;fill-opacity:1;"><g transform="translate(221.379751, 246.113597)"><path style="stroke:none" d="M 1.4375 -12.171875 L 4.265625 -12.171875 L 4.265625 -2.296875 L 10.359375 -2.296875 L 10.359375 0 L 1.4375 0 Z M 1.4375 -12.171875 "/></g></g><g style="fill:#111827;fill-opacity:1;"><g transform="translate(233.807141, 246.113597)"><path style="stroke:none" d="M 10.375 -6.328125 C 11.070312 -6.109375 11.617188 -5.738281 12.015625 -5.21875 C 12.410156 -4.707031 12.609375 -4.078125 12.609375 -3.328125 C 12.609375 -2.253906 12.191406 -1.429688 11.359375 -0.859375 C 10.535156 -0.285156 9.328125 0 7.734375 0 L 1.4375 0 L 1.4375 -12.171875 L 7.390625 -12.171875 C 8.867188 -12.171875 10.003906 -11.882812 10.796875 -11.3125 C 11.597656 -10.75 12 -9.984375 12 -9.015625 C 12 -8.421875 11.851562 -7.890625 11.5625 -7.421875 C 11.28125 -6.960938 10.882812 -6.597656 10.375 -6.328125 Z M 4.25 -10.046875 L 4.25 -7.1875 L 7.046875 -7.1875 C 7.742188 -7.1875 8.269531 -7.304688 8.625 -7.546875 C 8.988281 -7.785156 9.171875 -8.144531 9.171875 -8.625 C 9.171875 -9.101562 8.988281 -9.457031 8.625 -9.6875 C 8.269531 -9.925781 7.742188 -10.046875 7.046875 -10.046875 Z M 7.53125 -2.125 C 8.269531 -2.125 8.828125 -2.242188 9.203125 -2.484375 C 9.585938 -2.734375 9.78125 -3.113281 9.78125 -3.625 C 9.78125 -4.625 9.03125 -5.125 7.53125 -5.125 L 4.25 -5.125 L 4.25 -2.125 Z M 7.53125 -2.125 "/></g></g><g style="fill:#111827;fill-opacity:1;"><g transform="translate(249.032532, 246.113597)"><path style="stroke:none" d="M 10.875 -2.265625 L 10.875 0 L 1.4375 0 L 1.4375 -12.171875 L 10.640625 -12.171875 L 10.640625 -9.90625 L 4.25 -9.90625 L 4.25 -7.265625 L 9.890625 -7.265625 L 9.890625 -5.078125 L 4.25 -5.078125 L 4.25 -2.265625 Z M 10.875 -2.265625 "/></g></g><g style="fill:#111827;fill-opacity:1;"><g transform="translate(262.624301, 246.113597)"><path style="stroke:none" d="M 9.203125 0 L 6.859375 -3.390625 L 4.265625 -3.390625 L 4.265625 0 L 1.4375 0 L 1.4375 -12.171875 L 6.71875 -12.171875 C 7.789062 -12.171875 8.722656 -11.988281 9.515625 -11.625 C 10.316406 -11.269531 10.929688 -10.757812 11.359375 -10.09375 C 11.785156 -9.4375 12 -8.65625 12 -7.75 C 12 -6.851562 11.78125 -6.078125 11.34375 -5.421875 C 10.90625 -4.765625 10.289062 -4.257812 9.5 -3.90625 L 12.21875 0 Z M 9.140625 -7.75 C 9.140625 -8.4375 8.921875 -8.960938 8.484375 -9.328125 C 8.046875 -9.691406 7.40625 -9.875 6.5625 -9.875 L 4.265625 -9.875 L 4.265625 -5.640625 L 6.5625 -5.640625 C 7.40625 -5.640625 8.046875 -5.820312 8.484375 -6.1875 C 8.921875 -6.5625 9.140625 -7.082031 9.140625 -7.75 Z M 9.140625 -7.75 "/></g></g><g style="fill:#111827;fill-opacity:1;"><g transform="translate(277.328321, 246.113597)"><path style="stroke:none" d="M 9.453125 -2.609375 L 3.8125 -2.609375 L 2.734375 0 L -0.15625 0 L 5.265625 -12.171875 L 8.046875 -12.171875 L 13.5 0 L 10.53125 0 Z M 8.578125 -4.75 L 6.640625 -9.40625 L 4.71875 -4.75 Z M 8.578125 -4.75 "/></g></g><g style="fill:#111827;fill-opacity:1;"><g transform="translate(292.571084, 246.113597)"><path style="stroke:none" d="M 3.96875 -9.875 L 0.0625 -9.875 L 0.0625 -12.171875 L 10.671875 -12.171875 L 10.671875 -9.875 L 6.78125 -9.875 L 6.78125 0 L 3.96875 0 Z M 3.96875 -9.875 "/></g></g><g style="fill:#111827;fill-opacity:1;"><g transform="translate(305.241799, 246.113597)"><path style="stroke:none" d="M 10.875 -2.265625 L 10.875 0 L 1.4375 0 L 1.4375 -12.171875 L 10.640625 -12.171875 L 10.640625 -9.90625 L 4.25 -9.90625 L 4.25 -7.265625 L 9.890625 -7.265625 L 9.890625 -5.078125 L 4.25 -5.078125 L 4.25 -2.265625 Z M 10.875 -2.265625 "/></g></g><g style="fill:#111827;fill-opacity:1;"><g transform="translate(318.833556, 246.113597)"><path style="stroke:none" d="M 9.203125 0 L 6.859375 -3.390625 L 4.265625 -3.390625 L 4.265625 0 L 1.4375 0 L 1.4375 -12.171875 L 6.71875 -12.171875 C 7.789062 -12.171875 8.722656 -11.988281 9.515625 -11.625 C 10.316406 -11.269531 10.929688 -10.757812 11.359375 -10.09375 C 11.785156 -9.4375 12 -8.65625 12 -7.75 C 12 -6.851562 11.78125 -6.078125 11.34375 -5.421875 C 10.90625 -4.765625 10.289062 -4.257812 9.5 -3.90625 L 12.21875 0 Z M 9.140625 -7.75 C 9.140625 -8.4375 8.921875 -8.960938 8.484375 -9.328125 C 8.046875 -9.691406 7.40625 -9.875 6.5625 -9.875 L 4.265625 -9.875 L 4.265625 -5.640625 L 6.5625 -5.640625 C 7.40625 -5.640625 8.046875 -5.820312 8.484375 -6.1875 C 8.921875 -6.5625 9.140625 -7.082031 9.140625 -7.75 Z M 9.140625 -7.75 "/></g></g><g clip-rule="nonzero" clip-path="url(#39d51ea4a3)"><g clip-rule="nonzero" clip-path="url(#b4906600bf)"><g clip-rule="nonzero" clip-path="url(#6233b85769)"><g clip-rule="nonzero" clip-path="url(#697b3982c9)"><g clip-rule="nonzero" clip-path="url(#c2a2f8a61b)"><path style=" stroke:none;fill-rule:nonzero;fill:url(#2fe3b03a02);" d="M 64.234375 133.789062 L 69.097656 195.371094 L 130.679688 190.507812 L 125.816406 128.925781 Z M 64.234375 133.789062 "/></g></g></g></g></g><g clip-rule="nonzero" clip-path="url(#923db170c1)"><g clip-rule="nonzero" clip-path="url(#7850fb9474)"><g clip-rule="nonzero" clip-path="url(#d2a68168a8)"><g clip-rule="nonzero" clip-path="url(#f9f2fa0507)"><g clip-rule="nonzero" clip-path="url(#9783be390f)"><path style=" stroke:none;fill-rule:nonzero;fill:url(#2f60427421);" d="M 52.984375 180.125 L 56.003906 218.359375 L 94.238281 215.339844 L 91.21875 177.105469 Z M 52.984375 180.125 "/></g></g></g></g></g><g clip-rule="nonzero" clip-path="url(#aad674e53a)"><g clip-rule="nonzero" clip-path="url(#11b36b2b1f)"><g clip-rule="nonzero" clip-path="url(#736635f2f9)"><path style=" stroke:none;fill-rule:nonzero;fill:#111827;fill-opacity:1;" d="M 79.261719 191.273438 C 79.128906 189.578125 77.648438 188.316406 75.957031 188.449219 C 74.261719 188.582031 73 190.0625 73.132812 191.757812 C 73.265625 193.449219 74.746094 194.714844 76.441406 194.582031 C 78.132812 194.445312 79.398438 192.964844 79.261719 191.273438 Z M 70.132812 191.992188 C 70 190.300781 68.519531 189.035156 66.824219 189.171875 C 65.132812 189.304688 63.867188 190.785156 64 192.476562 C 64.136719 194.171875 65.617188 195.433594 67.308594 195.300781 C 69.003906 195.167969 70.265625 193.6875 70.132812 191.992188 Z M 61 192.714844 C 60.867188 191.023438 59.386719 189.757812 57.695312 189.890625 C 56 190.023438 54.734375 191.507812 54.871094 193.199219 C 55.003906 194.890625 56.484375 196.15625 58.175781 196.023438 C 59.871094 195.890625 61.132812 194.40625 61 192.714844 Z M 65.390625 171.023438 C 71.660156 170.53125 76.730469 171.96875 80.046875 175.183594 C 81.820312 176.898438 81.328125 178.863281 80.371094 180.027344 C 79.0625 181.609375 76.492188 182.328125 73.695312 180.367188 C 70.160156 177.894531 67.242188 174.714844 65.0625 171.050781 C 65.171875 171.042969 65.28125 171.035156 65.390625 171.023438 Z M 82.691406 221.527344 C 83.058594 221.324219 83.28125 220.929688 83.269531 220.511719 L 82.828125 207.078125 C 86.015625 203.90625 88.148438 199.921875 89.015625 195.523438 C 89.136719 194.917969 88.738281 194.328125 88.132812 194.210938 C 87.527344 194.089844 86.9375 194.484375 86.820312 195.089844 C 86.007812 199.195312 83.96875 202.902344 80.921875 205.808594 C 80.691406 206.03125 80.566406 206.339844 80.574219 206.65625 L 80.960938 218.402344 L 70.492188 211.378906 C 70.265625 211.226562 69.988281 211.164062 69.71875 211.199219 C 69.304688 211.257812 68.929688 211.296875 68.574219 211.324219 C 57.464844 212.203125 47.710938 203.878906 46.832031 192.765625 C 46.027344 182.578125 52.960938 173.527344 62.6875 171.421875 C 65.070312 175.679688 68.367188 179.371094 72.410156 182.203125 C 76.359375 184.964844 80.199219 183.75 82.097656 181.453125 C 84.09375 179.03125 83.894531 175.792969 81.605469 173.578125 C 78.960938 171.011719 73.96875 168.101562 65.214844 168.792969 C 64.777344 168.828125 64.339844 168.875 63.910156 168.933594 C 62.121094 165.324219 61.011719 161.324219 60.679688 157.125 C 59.296875 139.628906 72.410156 124.269531 89.90625 122.886719 C 107.40625 121.503906 122.765625 134.617188 124.144531 152.117188 C 124.902344 161.703125 121.335938 171.019531 114.363281 177.667969 C 114.132812 177.886719 114.007812 178.195312 114.015625 178.515625 L 114.648438 197.84375 L 97.496094 186.335938 C 96.980469 185.992188 96.285156 186.128906 95.941406 186.640625 C 95.597656 187.15625 95.734375 187.851562 96.246094 188.195312 L 115.214844 200.917969 C 115.566406 201.152344 116.015625 201.171875 116.382812 200.96875 C 116.75 200.765625 116.972656 200.375 116.957031 199.953125 L 116.273438 178.9375 C 123.496094 171.847656 127.175781 162.035156 126.378906 151.9375 C 124.898438 133.210938 108.460938 119.175781 89.730469 120.652344 C 71.003906 122.132812 56.96875 138.574219 58.449219 157.300781 C 58.785156 161.574219 59.878906 165.65625 61.628906 169.367188 C 51.132812 171.9375 43.722656 181.828125 44.601562 192.941406 C 45.574219 205.285156 56.410156 214.53125 68.75 213.558594 C 69.019531 213.535156 69.300781 213.507812 69.59375 213.472656 L 81.527344 221.476562 C 81.738281 221.621094 81.992188 221.683594 82.238281 221.664062 C 82.394531 221.652344 82.550781 221.605469 82.691406 221.527344 Z M 106.683594 152.367188 C 106.535156 150.453125 104.859375 149.019531 102.941406 149.171875 C 101.027344 149.324219 99.597656 151 99.746094 152.914062 C 99.898438 154.832031 101.574219 156.261719 103.488281 156.109375 C 105.40625 155.957031 106.835938 154.285156 106.683594 152.367188 Z M 96.351562 153.183594 C 96.199219 151.265625 94.523438 149.835938 92.609375 149.988281 C 90.691406 150.140625 89.261719 151.816406 89.414062 153.730469 C 89.566406 155.648438 91.242188 157.078125 93.15625 156.925781 C 95.074219 156.773438 96.503906 155.097656 96.351562 153.183594 Z M 82.824219 157.742188 C 80.90625 157.890625 79.230469 156.460938 79.078125 154.546875 C 78.929688 152.628906 80.359375 150.953125 82.273438 150.804688 C 84.191406 150.652344 85.867188 152.082031 86.019531 154 C 86.167969 155.914062 84.738281 157.589844 82.824219 157.742188 "/></g></g></g><g style="fill:#111827;fill-opacity:1;"><g transform="translate(129.071362, 211.656592)"><path style="stroke:none" d="M 16.859375 0.640625 C 13.878906 0.640625 11 0.238281 8.21875 -0.5625 C 5.4375 -1.375 3.203125 -2.425781 1.515625 -3.71875 L 4.46875 -10.28125 C 6.082031 -9.101562 8.003906 -8.15625 10.234375 -7.4375 C 12.460938 -6.71875 14.6875 -6.359375 16.90625 -6.359375 C 19.382812 -6.359375 21.21875 -6.722656 22.40625 -7.453125 C 23.59375 -8.191406 24.1875 -9.171875 24.1875 -10.390625 C 24.1875 -11.285156 23.832031 -12.03125 23.125 -12.625 C 22.425781 -13.21875 21.53125 -13.691406 20.4375 -14.046875 C 19.34375 -14.410156 17.863281 -14.8125 16 -15.25 C 13.125 -15.925781 10.769531 -16.601562 8.9375 -17.28125 C 7.101562 -17.96875 5.53125 -19.066406 4.21875 -20.578125 C 2.914062 -22.085938 2.265625 -24.097656 2.265625 -26.609375 C 2.265625 -28.796875 2.851562 -30.773438 4.03125 -32.546875 C 5.21875 -34.328125 7.003906 -35.738281 9.390625 -36.78125 C 11.785156 -37.820312 14.707031 -38.34375 18.15625 -38.34375 C 20.5625 -38.34375 22.910156 -38.054688 25.203125 -37.484375 C 27.503906 -36.910156 29.515625 -36.085938 31.234375 -35.015625 L 28.546875 -28.390625 C 25.066406 -30.359375 21.582031 -31.34375 18.09375 -31.34375 C 15.65625 -31.34375 13.851562 -30.945312 12.6875 -30.15625 C 11.519531 -29.363281 10.9375 -28.320312 10.9375 -27.03125 C 10.9375 -25.738281 11.609375 -24.78125 12.953125 -24.15625 C 14.296875 -23.53125 16.351562 -22.910156 19.125 -22.296875 C 21.988281 -21.617188 24.335938 -20.9375 26.171875 -20.25 C 28.003906 -19.570312 29.578125 -18.492188 30.890625 -17.015625 C 32.203125 -15.546875 32.859375 -13.554688 32.859375 -11.046875 C 32.859375 -8.890625 32.253906 -6.921875 31.046875 -5.140625 C 29.847656 -3.367188 28.046875 -1.960938 25.640625 -0.921875 C 23.234375 0.117188 20.304688 0.640625 16.859375 0.640625 Z M 16.859375 0.640625 "/></g></g><g style="fill:#111827;fill-opacity:1;"><g transform="translate(163.432453, 211.656592)"><path style="stroke:none" d="M 21 -29.40625 C 23.695312 -29.40625 26.148438 -28.785156 28.359375 -27.546875 C 30.566406 -26.304688 32.296875 -24.5625 33.546875 -22.3125 C 34.804688 -20.070312 35.4375 -17.460938 35.4375 -14.484375 C 35.4375 -11.503906 34.804688 -8.890625 33.546875 -6.640625 C 32.296875 -4.398438 30.566406 -2.660156 28.359375 -1.421875 C 26.148438 -0.179688 23.695312 0.4375 21 0.4375 C 17.300781 0.4375 14.394531 -0.726562 12.28125 -3.0625 L 12.28125 10.453125 L 3.875 10.453125 L 3.875 -28.96875 L 11.90625 -28.96875 L 11.90625 -25.640625 C 13.988281 -28.148438 17.019531 -29.40625 21 -29.40625 Z M 19.546875 -6.46875 C 21.703125 -6.46875 23.472656 -7.191406 24.859375 -8.640625 C 26.242188 -10.097656 26.9375 -12.046875 26.9375 -14.484375 C 26.9375 -16.929688 26.242188 -18.878906 24.859375 -20.328125 C 23.472656 -21.785156 21.703125 -22.515625 19.546875 -22.515625 C 17.390625 -22.515625 15.617188 -21.785156 14.234375 -20.328125 C 12.859375 -18.878906 12.171875 -16.929688 12.171875 -14.484375 C 12.171875 -12.046875 12.859375 -10.097656 14.234375 -8.640625 C 15.617188 -7.191406 17.390625 -6.46875 19.546875 -6.46875 Z M 19.546875 -6.46875 "/></g></g><g style="fill:#111827;fill-opacity:1;"><g transform="translate(200.594126, 211.656592)"><path style="stroke:none" d="M 32.265625 -14.375 C 32.265625 -14.269531 32.207031 -13.519531 32.09375 -12.125 L 10.171875 -12.125 C 10.566406 -10.320312 11.5 -8.898438 12.96875 -7.859375 C 14.445312 -6.816406 16.28125 -6.296875 18.46875 -6.296875 C 19.976562 -6.296875 21.316406 -6.519531 22.484375 -6.96875 C 23.648438 -7.414062 24.738281 -8.128906 25.75 -9.109375 L 30.21875 -4.25 C 27.488281 -1.125 23.503906 0.4375 18.265625 0.4375 C 14.992188 0.4375 12.097656 -0.195312 9.578125 -1.46875 C 7.066406 -2.75 5.128906 -4.519531 3.765625 -6.78125 C 2.398438 -9.039062 1.71875 -11.609375 1.71875 -14.484375 C 1.71875 -17.328125 2.390625 -19.882812 3.734375 -22.15625 C 5.085938 -24.4375 6.9375 -26.210938 9.28125 -27.484375 C 11.632812 -28.765625 14.269531 -29.40625 17.1875 -29.40625 C 20.019531 -29.40625 22.582031 -28.796875 24.875 -27.578125 C 27.175781 -26.359375 28.984375 -24.609375 30.296875 -22.328125 C 31.609375 -20.046875 32.265625 -17.394531 32.265625 -14.375 Z M 17.234375 -23.046875 C 15.328125 -23.046875 13.726562 -22.503906 12.4375 -21.421875 C 11.144531 -20.347656 10.359375 -18.878906 10.078125 -17.015625 L 24.34375 -17.015625 C 24.050781 -18.847656 23.257812 -20.3125 21.96875 -21.40625 C 20.675781 -22.5 19.097656 -23.046875 17.234375 -23.046875 Z M 17.234375 -23.046875 "/></g></g><g style="fill:#111827;fill-opacity:1;"><g transform="translate(234.578215, 211.656592)"><path style="stroke:none" d="M 15.5625 -29.40625 C 20.050781 -29.40625 23.5 -28.335938 25.90625 -26.203125 C 28.3125 -24.066406 29.515625 -20.84375 29.515625 -16.53125 L 29.515625 0 L 21.65625 0 L 21.65625 -3.609375 C 20.070312 -0.910156 17.125 0.4375 12.8125 0.4375 C 10.59375 0.4375 8.664062 0.0625 7.03125 -0.6875 C 5.394531 -1.445312 4.144531 -2.488281 3.28125 -3.8125 C 2.425781 -5.144531 2 -6.65625 2 -8.34375 C 2 -11.039062 3.007812 -13.160156 5.03125 -14.703125 C 7.0625 -16.242188 10.195312 -17.015625 14.4375 -17.015625 L 21.109375 -17.015625 C 21.109375 -18.847656 20.550781 -20.257812 19.4375 -21.25 C 18.332031 -22.238281 16.664062 -22.734375 14.4375 -22.734375 C 12.894531 -22.734375 11.375 -22.488281 9.875 -22 C 8.382812 -21.519531 7.125 -20.863281 6.09375 -20.03125 L 3.0625 -25.90625 C 4.644531 -27.019531 6.539062 -27.878906 8.75 -28.484375 C 10.957031 -29.097656 13.226562 -29.40625 15.5625 -29.40625 Z M 14.921875 -5.21875 C 16.359375 -5.21875 17.628906 -5.550781 18.734375 -6.21875 C 19.847656 -6.882812 20.640625 -7.863281 21.109375 -9.15625 L 21.109375 -12.125 L 15.34375 -12.125 C 11.894531 -12.125 10.171875 -10.988281 10.171875 -8.71875 C 10.171875 -7.644531 10.59375 -6.789062 11.4375 -6.15625 C 12.28125 -5.53125 13.441406 -5.21875 14.921875 -5.21875 Z M 14.921875 -5.21875 "/></g></g><g style="fill:#111827;fill-opacity:1;"><g transform="translate(267.808281, 211.656592)"><path style="stroke:none" d="M 16.3125 -11.359375 L 12.28125 -7.375 L 12.28125 0 L 3.875 0 L 3.875 -39.96875 L 12.28125 -39.96875 L 12.28125 -17.34375 L 24.5625 -28.96875 L 34.578125 -28.96875 L 22.515625 -16.703125 L 35.65625 0 L 25.46875 0 Z M 16.3125 -11.359375 "/></g></g><g style="fill:#111827;fill-opacity:1;"><g transform="translate(303.354222, 211.656592)"><path style="stroke:none" d="M 3.875 -28.96875 L 12.28125 -28.96875 L 12.28125 0 L 3.875 0 Z M 8.078125 -33.015625 C 6.535156 -33.015625 5.28125 -33.460938 4.3125 -34.359375 C 3.34375 -35.253906 2.859375 -36.367188 2.859375 -37.703125 C 2.859375 -39.023438 3.34375 -40.132812 4.3125 -41.03125 C 5.28125 -41.9375 6.535156 -42.390625 8.078125 -42.390625 C 9.617188 -42.390625 10.875 -41.957031 11.84375 -41.09375 C 12.8125 -40.226562 13.296875 -39.148438 13.296875 -37.859375 C 13.296875 -36.460938 12.8125 -35.304688 11.84375 -34.390625 C 10.875 -33.472656 9.617188 -33.015625 8.078125 -33.015625 Z M 8.078125 -33.015625 "/></g></g><g style="fill:#111827;fill-opacity:1;"><g transform="translate(319.565321, 211.656592)"><path style="stroke:none" d="M 3.875 -28.96875 L 12.28125 -28.96875 L 12.28125 0 L 3.875 0 Z M 8.078125 -33.015625 C 6.535156 -33.015625 5.28125 -33.460938 4.3125 -34.359375 C 3.34375 -35.253906 2.859375 -36.367188 2.859375 -37.703125 C 2.859375 -39.023438 3.34375 -40.132812 4.3125 -41.03125 C 5.28125 -41.9375 6.535156 -42.390625 8.078125 -42.390625 C 9.617188 -42.390625 10.875 -41.957031 11.84375 -41.09375 C 12.8125 -40.226562 13.296875 -39.148438 13.296875 -37.859375 C 13.296875 -36.460938 12.8125 -35.304688 11.84375 -34.390625 C 10.875 -33.472656 9.617188 -33.015625 8.078125 -33.015625 Z M 8.078125 -33.015625 "/></g></g></g></svg>