<svg xmlns="http://www.w3.org/2000/svg" width="550" viewBox="0 0 412.5 150" height="200" version="1.2"><defs><clipPath id="h"><path d="m53.648 72.387 39.543-3.121 3.125 39.543-39.543 3.12zm0 0"/></clipPath><clipPath id="a"><path d="M70 17h65v65H70zm0 0"/></clipPath><clipPath id="c"><path d="M100.063 17.57c-17.586 1.387-30.72 16.77-29.329 34.36 1.387 17.586 16.77 30.718 34.36 29.332 17.586-1.39 30.719-16.774 29.332-34.36-1.39-17.59-16.774-30.722-34.363-29.332zm0 0"/></clipPath><clipPath id="d"><path d="m68.219 20.082 63.691-5.027 5.028 63.691-63.692 5.027zm0 0"/></clipPath><clipPath id="e"><path d="m68.219 20.082 63.691-5.027 5.028 63.691-63.692 5.027zm0 0"/></clipPath><clipPath id="n"><path d="m35.164 5.988 97.781-7.722 9.157 115.953-97.782 7.719zm0 0"/></clipPath><clipPath id="g"><path d="M55 70h40v41H55zm0 0"/></clipPath><clipPath id="b"><path d="m68.219 20.082 63.691-5.027 5.028 63.691-63.692 5.027zm0 0"/></clipPath><clipPath id="i"><path d="M73.422 70.824C62.5 71.688 54.348 81.238 55.21 92.16c.863 10.918 10.414 19.07 21.332 18.211 10.918-.863 19.074-10.414 18.21-21.336-.862-10.918-10.413-19.07-21.331-18.21zm0 0"/></clipPath><clipPath id="j"><path d="m53.648 72.387 39.543-3.121 3.125 39.543-39.543 3.12zm0 0"/></clipPath><clipPath id="k"><path d="m53.648 72.387 39.543-3.121 3.125 39.543-39.543 3.12zm0 0"/></clipPath><clipPath id="m"><path d="M41 1h96v118H41zm0 0"/></clipPath><clipPath id="o"><path d="m35.164 5.988 97.781-7.722 9.157 115.953-97.782 7.719zm0 0"/></clipPath><linearGradient x1="-15.235" gradientTransform="matrix(.15447 -.0122 .0122 .15447 53.65 72.387)" y1="128" x2="271.235" gradientUnits="userSpaceOnUse" y2="128" id="l"><stop style="stop-color:#f97316;stop-opacity:1" offset="0"/><stop style="stop-color:#f97316;stop-opacity:1" offset=".031"/><stop style="stop-color:#f97316;stop-opacity:1" offset=".047"/><stop style="stop-color:#f97316;stop-opacity:1" offset=".055"/><stop style="stop-color:#f97417;stop-opacity:1" offset=".059"/><stop style="stop-color:#f97418;stop-opacity:1" offset=".063"/><stop style="stop-color:#f97519;stop-opacity:1" offset=".066"/><stop style="stop-color:#f9751a;stop-opacity:1" offset=".07"/><stop style="stop-color:#f9761b;stop-opacity:1" offset=".074"/><stop style="stop-color:#f9761c;stop-opacity:1" offset=".078"/><stop style="stop-color:#f9771d;stop-opacity:1" offset=".082"/><stop style="stop-color:#f9781e;stop-opacity:1" offset=".086"/><stop style="stop-color:#f9781e;stop-opacity:1" offset=".09"/><stop style="stop-color:#f9791f;stop-opacity:1" offset=".094"/><stop style="stop-color:#f97920;stop-opacity:1" offset=".098"/><stop style="stop-color:#f97a21;stop-opacity:1" offset=".102"/><stop style="stop-color:#f97a22;stop-opacity:1" offset=".105"/><stop style="stop-color:#f97b23;stop-opacity:1" offset=".109"/><stop style="stop-color:#f97b24;stop-opacity:1" offset=".113"/><stop style="stop-color:#f97c25;stop-opacity:1" offset=".117"/><stop style="stop-color:#f97c26;stop-opacity:1" offset=".121"/><stop style="stop-color:#f87d27;stop-opacity:1" offset=".125"/><stop style="stop-color:#f87d27;stop-opacity:1" offset=".129"/><stop style="stop-color:#f87e28;stop-opacity:1" offset=".133"/><stop style="stop-color:#f87e29;stop-opacity:1" offset=".137"/><stop style="stop-color:#f87f2a;stop-opacity:1" offset=".141"/><stop style="stop-color:#f8802b;stop-opacity:1" offset=".145"/><stop style="stop-color:#f8802c;stop-opacity:1" offset=".148"/><stop style="stop-color:#f8812d;stop-opacity:1" offset=".152"/><stop style="stop-color:#f8812e;stop-opacity:1" offset=".156"/><stop style="stop-color:#f8822f;stop-opacity:1" offset=".16"/><stop style="stop-color:#f88230;stop-opacity:1" offset=".164"/><stop style="stop-color:#f88331;stop-opacity:1" offset=".168"/><stop style="stop-color:#f88331;stop-opacity:1" offset=".172"/><stop style="stop-color:#f88432;stop-opacity:1" offset=".176"/><stop style="stop-color:#f88433;stop-opacity:1" offset=".18"/><stop style="stop-color:#f88534;stop-opacity:1" offset=".184"/><stop style="stop-color:#f88535;stop-opacity:1" offset=".188"/><stop style="stop-color:#f88636;stop-opacity:1" offset=".191"/><stop style="stop-color:#f88737;stop-opacity:1" offset=".195"/><stop style="stop-color:#f88738;stop-opacity:1" offset=".199"/><stop style="stop-color:#f88839;stop-opacity:1" offset=".203"/><stop style="stop-color:#f8883a;stop-opacity:1" offset=".207"/><stop style="stop-color:#f8893a;stop-opacity:1" offset=".211"/><stop style="stop-color:#f8893b;stop-opacity:1" offset=".215"/><stop style="stop-color:#f88a3c;stop-opacity:1" offset=".219"/><stop style="stop-color:#f88a3d;stop-opacity:1" offset=".223"/><stop style="stop-color:#f88b3e;stop-opacity:1" offset=".227"/><stop style="stop-color:#f88b3f;stop-opacity:1" offset=".23"/><stop style="stop-color:#f88c40;stop-opacity:1" offset=".234"/><stop style="stop-color:#f88c41;stop-opacity:1" offset=".238"/><stop style="stop-color:#f88d42;stop-opacity:1" offset=".242"/><stop style="stop-color:#f88e43;stop-opacity:1" offset=".246"/><stop style="stop-color:#f88e44;stop-opacity:1" offset=".25"/><stop style="stop-color:#f88f44;stop-opacity:1" offset=".254"/><stop style="stop-color:#f88f45;stop-opacity:1" offset=".258"/><stop style="stop-color:#f89046;stop-opacity:1" offset=".262"/><stop style="stop-color:#f89047;stop-opacity:1" offset=".266"/><stop style="stop-color:#f89148;stop-opacity:1" offset=".27"/><stop style="stop-color:#f89149;stop-opacity:1" offset=".273"/><stop style="stop-color:#f8924a;stop-opacity:1" offset=".277"/><stop style="stop-color:#f8924b;stop-opacity:1" offset=".281"/><stop style="stop-color:#f8934c;stop-opacity:1" offset=".285"/><stop style="stop-color:#f8934d;stop-opacity:1" offset=".289"/><stop style="stop-color:#f8944d;stop-opacity:1" offset=".293"/><stop style="stop-color:#f8954e;stop-opacity:1" offset=".297"/><stop style="stop-color:#f8954f;stop-opacity:1" offset=".301"/><stop style="stop-color:#f89650;stop-opacity:1" offset=".305"/><stop style="stop-color:#f79651;stop-opacity:1" offset=".309"/><stop style="stop-color:#f79752;stop-opacity:1" offset=".313"/><stop style="stop-color:#f79753;stop-opacity:1" offset=".316"/><stop style="stop-color:#f79854;stop-opacity:1" offset=".32"/><stop style="stop-color:#f79855;stop-opacity:1" offset=".324"/><stop style="stop-color:#f79956;stop-opacity:1" offset=".328"/><stop style="stop-color:#f79957;stop-opacity:1" offset=".332"/><stop style="stop-color:#f79a57;stop-opacity:1" offset=".336"/><stop style="stop-color:#f79a58;stop-opacity:1" offset=".34"/><stop style="stop-color:#f79b59;stop-opacity:1" offset=".344"/><stop style="stop-color:#f79c5a;stop-opacity:1" offset=".348"/><stop style="stop-color:#f79c5b;stop-opacity:1" offset=".352"/><stop style="stop-color:#f79d5c;stop-opacity:1" offset=".355"/><stop style="stop-color:#f79d5d;stop-opacity:1" offset=".359"/><stop style="stop-color:#f79e5e;stop-opacity:1" offset=".363"/><stop style="stop-color:#f79e5f;stop-opacity:1" offset=".367"/><stop style="stop-color:#f79f60;stop-opacity:1" offset=".371"/><stop style="stop-color:#f79f60;stop-opacity:1" offset=".375"/><stop style="stop-color:#f7a061;stop-opacity:1" offset=".379"/><stop style="stop-color:#f7a062;stop-opacity:1" offset=".383"/><stop style="stop-color:#f7a163;stop-opacity:1" offset=".387"/><stop style="stop-color:#f7a164;stop-opacity:1" offset=".391"/><stop style="stop-color:#f7a265;stop-opacity:1" offset=".395"/><stop style="stop-color:#f7a266;stop-opacity:1" offset=".398"/><stop style="stop-color:#f7a367;stop-opacity:1" offset=".402"/><stop style="stop-color:#f7a468;stop-opacity:1" offset=".406"/><stop style="stop-color:#f7a469;stop-opacity:1" offset=".41"/><stop style="stop-color:#f7a56a;stop-opacity:1" offset=".414"/><stop style="stop-color:#f7a56a;stop-opacity:1" offset=".418"/><stop style="stop-color:#f7a66b;stop-opacity:1" offset=".422"/><stop style="stop-color:#f7a66c;stop-opacity:1" offset=".426"/><stop style="stop-color:#f7a76d;stop-opacity:1" offset=".43"/><stop style="stop-color:#f7a76e;stop-opacity:1" offset=".434"/><stop style="stop-color:#f7a86f;stop-opacity:1" offset=".438"/><stop style="stop-color:#f7a870;stop-opacity:1" offset=".441"/><stop style="stop-color:#f7a971;stop-opacity:1" offset=".445"/><stop style="stop-color:#f7a972;stop-opacity:1" offset=".449"/><stop style="stop-color:#f7aa73;stop-opacity:1" offset=".453"/><stop style="stop-color:#f7ab74;stop-opacity:1" offset=".457"/><stop style="stop-color:#f7ab74;stop-opacity:1" offset=".461"/><stop style="stop-color:#f7ac75;stop-opacity:1" offset=".465"/><stop style="stop-color:#f7ac76;stop-opacity:1" offset=".469"/><stop style="stop-color:#f7ad77;stop-opacity:1" offset=".473"/><stop style="stop-color:#f7ad78;stop-opacity:1" offset=".477"/><stop style="stop-color:#f7ae79;stop-opacity:1" offset=".48"/><stop style="stop-color:#f7ae7a;stop-opacity:1" offset=".484"/><stop style="stop-color:#f7af7b;stop-opacity:1" offset=".488"/><stop style="stop-color:#f6af7c;stop-opacity:1" offset=".492"/><stop style="stop-color:#f6b07d;stop-opacity:1" offset=".496"/><stop style="stop-color:#f6b07d;stop-opacity:1" offset=".5"/><stop style="stop-color:#f6b17e;stop-opacity:1" offset=".504"/><stop style="stop-color:#f6b27f;stop-opacity:1" offset=".508"/><stop style="stop-color:#f6b280;stop-opacity:1" offset=".512"/><stop style="stop-color:#f6b381;stop-opacity:1" offset=".516"/><stop style="stop-color:#f6b382;stop-opacity:1" offset=".52"/><stop style="stop-color:#f6b483;stop-opacity:1" offset=".523"/><stop style="stop-color:#f6b484;stop-opacity:1" offset=".527"/><stop style="stop-color:#f6b585;stop-opacity:1" offset=".531"/><stop style="stop-color:#f6b586;stop-opacity:1" offset=".535"/><stop style="stop-color:#f6b687;stop-opacity:1" offset=".539"/><stop style="stop-color:#f6b687;stop-opacity:1" offset=".543"/><stop style="stop-color:#f6b788;stop-opacity:1" offset=".547"/><stop style="stop-color:#f6b789;stop-opacity:1" offset=".551"/><stop style="stop-color:#f6b88a;stop-opacity:1" offset=".555"/><stop style="stop-color:#f6b98b;stop-opacity:1" offset=".559"/><stop style="stop-color:#f6b98c;stop-opacity:1" offset=".563"/><stop style="stop-color:#f6ba8d;stop-opacity:1" offset=".566"/><stop style="stop-color:#f6ba8e;stop-opacity:1" offset=".57"/><stop style="stop-color:#f6bb8f;stop-opacity:1" offset=".574"/><stop style="stop-color:#f6bb90;stop-opacity:1" offset=".578"/><stop style="stop-color:#f6bc90;stop-opacity:1" offset=".582"/><stop style="stop-color:#f6bc91;stop-opacity:1" offset=".586"/><stop style="stop-color:#f6bd92;stop-opacity:1" offset=".59"/><stop style="stop-color:#f6bd93;stop-opacity:1" offset=".594"/><stop style="stop-color:#f6be94;stop-opacity:1" offset=".598"/><stop style="stop-color:#f6be95;stop-opacity:1" offset=".602"/><stop style="stop-color:#f6bf96;stop-opacity:1" offset=".605"/><stop style="stop-color:#f6c097;stop-opacity:1" offset=".609"/><stop style="stop-color:#f6c098;stop-opacity:1" offset=".613"/><stop style="stop-color:#f6c199;stop-opacity:1" offset=".617"/><stop style="stop-color:#f6c19a;stop-opacity:1" offset=".621"/><stop style="stop-color:#f6c29a;stop-opacity:1" offset=".625"/><stop style="stop-color:#f6c29b;stop-opacity:1" offset=".629"/><stop style="stop-color:#f6c39c;stop-opacity:1" offset=".633"/><stop style="stop-color:#f6c39d;stop-opacity:1" offset=".637"/><stop style="stop-color:#f6c49e;stop-opacity:1" offset=".641"/><stop style="stop-color:#f6c49f;stop-opacity:1" offset=".645"/><stop style="stop-color:#f6c5a0;stop-opacity:1" offset=".648"/><stop style="stop-color:#f6c5a1;stop-opacity:1" offset=".652"/><stop style="stop-color:#f6c6a2;stop-opacity:1" offset=".656"/><stop style="stop-color:#f6c6a3;stop-opacity:1" offset=".66"/><stop style="stop-color:#f6c7a3;stop-opacity:1" offset=".664"/><stop style="stop-color:#f6c8a4;stop-opacity:1" offset=".668"/><stop style="stop-color:#f6c8a5;stop-opacity:1" offset=".672"/><stop style="stop-color:#f6c9a6;stop-opacity:1" offset=".676"/><stop style="stop-color:#f5c9a7;stop-opacity:1" offset=".68"/><stop style="stop-color:#f5caa8;stop-opacity:1" offset=".684"/><stop style="stop-color:#f5caa9;stop-opacity:1" offset=".688"/><stop style="stop-color:#f5cbaa;stop-opacity:1" offset=".691"/><stop style="stop-color:#f5cbab;stop-opacity:1" offset=".695"/><stop style="stop-color:#f5ccac;stop-opacity:1" offset=".699"/><stop style="stop-color:#f5ccad;stop-opacity:1" offset=".703"/><stop style="stop-color:#f5cdad;stop-opacity:1" offset=".707"/><stop style="stop-color:#f5cdae;stop-opacity:1" offset=".711"/><stop style="stop-color:#f5ceaf;stop-opacity:1" offset=".715"/><stop style="stop-color:#f5cfb0;stop-opacity:1" offset=".719"/><stop style="stop-color:#f5cfb1;stop-opacity:1" offset=".723"/><stop style="stop-color:#f5d0b2;stop-opacity:1" offset=".727"/><stop style="stop-color:#f5d0b3;stop-opacity:1" offset=".73"/><stop style="stop-color:#f5d1b4;stop-opacity:1" offset=".734"/><stop style="stop-color:#f5d1b5;stop-opacity:1" offset=".738"/><stop style="stop-color:#f5d2b6;stop-opacity:1" offset=".742"/><stop style="stop-color:#f5d2b6;stop-opacity:1" offset=".746"/><stop style="stop-color:#f5d3b7;stop-opacity:1" offset=".75"/><stop style="stop-color:#f5d3b8;stop-opacity:1" offset=".754"/><stop style="stop-color:#f5d4b9;stop-opacity:1" offset=".758"/><stop style="stop-color:#f5d4ba;stop-opacity:1" offset=".762"/><stop style="stop-color:#f5d5bb;stop-opacity:1" offset=".766"/><stop style="stop-color:#f5d6bc;stop-opacity:1" offset=".77"/><stop style="stop-color:#f5d6bd;stop-opacity:1" offset=".773"/><stop style="stop-color:#f5d7be;stop-opacity:1" offset=".777"/><stop style="stop-color:#f5d7bf;stop-opacity:1" offset=".781"/><stop style="stop-color:#f5d8c0;stop-opacity:1" offset=".785"/><stop style="stop-color:#f5d8c0;stop-opacity:1" offset=".789"/><stop style="stop-color:#f5d9c1;stop-opacity:1" offset=".793"/><stop style="stop-color:#f5d9c2;stop-opacity:1" offset=".797"/><stop style="stop-color:#f5dac3;stop-opacity:1" offset=".801"/><stop style="stop-color:#f5dac4;stop-opacity:1" offset=".805"/><stop style="stop-color:#f5dbc5;stop-opacity:1" offset=".809"/><stop style="stop-color:#f5dbc6;stop-opacity:1" offset=".813"/><stop style="stop-color:#f5dcc7;stop-opacity:1" offset=".816"/><stop style="stop-color:#f5ddc8;stop-opacity:1" offset=".82"/><stop style="stop-color:#f5ddc9;stop-opacity:1" offset=".824"/><stop style="stop-color:#f5dec9;stop-opacity:1" offset=".828"/><stop style="stop-color:#f5deca;stop-opacity:1" offset=".832"/><stop style="stop-color:#f5dfcb;stop-opacity:1" offset=".836"/><stop style="stop-color:#f5dfcc;stop-opacity:1" offset=".84"/><stop style="stop-color:#f5e0cd;stop-opacity:1" offset=".844"/><stop style="stop-color:#f5e0ce;stop-opacity:1" offset=".848"/><stop style="stop-color:#f5e1cf;stop-opacity:1" offset=".852"/><stop style="stop-color:#f5e1d0;stop-opacity:1" offset=".855"/><stop style="stop-color:#f5e2d1;stop-opacity:1" offset=".859"/><stop style="stop-color:#f4e2d2;stop-opacity:1" offset=".863"/><stop style="stop-color:#f4e3d3;stop-opacity:1" offset=".867"/><stop style="stop-color:#f4e3d3;stop-opacity:1" offset=".871"/><stop style="stop-color:#f4e4d4;stop-opacity:1" offset=".875"/><stop style="stop-color:#f4e5d5;stop-opacity:1" offset=".879"/><stop style="stop-color:#f4e5d6;stop-opacity:1" offset=".883"/><stop style="stop-color:#f4e6d7;stop-opacity:1" offset=".887"/><stop style="stop-color:#f4e6d8;stop-opacity:1" offset=".891"/><stop style="stop-color:#f4e7d9;stop-opacity:1" offset=".895"/><stop style="stop-color:#f4e7da;stop-opacity:1" offset=".898"/><stop style="stop-color:#f4e8db;stop-opacity:1" offset=".902"/><stop style="stop-color:#f4e8dc;stop-opacity:1" offset=".906"/><stop style="stop-color:#f4e9dc;stop-opacity:1" offset=".91"/><stop style="stop-color:#f4e9dd;stop-opacity:1" offset=".914"/><stop style="stop-color:#f4eade;stop-opacity:1" offset=".918"/><stop style="stop-color:#f4eadf;stop-opacity:1" offset=".922"/><stop style="stop-color:#f4ebe0;stop-opacity:1" offset=".926"/><stop style="stop-color:#f4ece1;stop-opacity:1" offset=".93"/><stop style="stop-color:#f4ece2;stop-opacity:1" offset=".934"/><stop style="stop-color:#f4ede3;stop-opacity:1" offset=".938"/><stop style="stop-color:#f4ede4;stop-opacity:1" offset=".941"/><stop style="stop-color:#f4eee5;stop-opacity:1" offset=".945"/><stop style="stop-color:#f4eee5;stop-opacity:1" offset=".953"/><stop style="stop-color:#f4eee5;stop-opacity:1" offset=".969"/><stop style="stop-color:#f4eee5;stop-opacity:1" offset="1"/></linearGradient><linearGradient x1="-15.235" gradientTransform="rotate(-4.517 288.91 -855.33) scale(.24957)" y1="128" x2="271.235" gradientUnits="userSpaceOnUse" y2="128" id="f"><stop style="stop-color:#38b6ff;stop-opacity:1" offset="0"/><stop style="stop-color:#38b6ff;stop-opacity:1" offset=".063"/><stop style="stop-color:#39b7ff;stop-opacity:1" offset=".078"/><stop style="stop-color:#39b7fe;stop-opacity:1" offset=".094"/><stop style="stop-color:#3ab8fe;stop-opacity:1" offset=".109"/><stop style="stop-color:#3ab9fe;stop-opacity:1" offset=".125"/><stop style="stop-color:#3bb9fd;stop-opacity:1" offset=".141"/><stop style="stop-color:#3bbafd;stop-opacity:1" offset=".156"/><stop style="stop-color:#3cbbfd;stop-opacity:1" offset=".172"/><stop style="stop-color:#3cbbfc;stop-opacity:1" offset=".188"/><stop style="stop-color:#3dbcfc;stop-opacity:1" offset=".203"/><stop style="stop-color:#3ebdfc;stop-opacity:1" offset=".219"/><stop style="stop-color:#3ebdfb;stop-opacity:1" offset=".234"/><stop style="stop-color:#3fbefb;stop-opacity:1" offset=".25"/><stop style="stop-color:#3fbffb;stop-opacity:1" offset=".266"/><stop style="stop-color:#40bffb;stop-opacity:1" offset=".281"/><stop style="stop-color:#40c0fa;stop-opacity:1" offset=".297"/><stop style="stop-color:#41c0fa;stop-opacity:1" offset=".313"/><stop style="stop-color:#41c1fa;stop-opacity:1" offset=".328"/><stop style="stop-color:#42c2f9;stop-opacity:1" offset=".344"/><stop style="stop-color:#42c2f9;stop-opacity:1" offset=".359"/><stop style="stop-color:#43c3f9;stop-opacity:1" offset=".375"/><stop style="stop-color:#43c4f8;stop-opacity:1" offset=".391"/><stop style="stop-color:#44c4f8;stop-opacity:1" offset=".406"/><stop style="stop-color:#45c5f8;stop-opacity:1" offset=".422"/><stop style="stop-color:#45c6f7;stop-opacity:1" offset=".438"/><stop style="stop-color:#46c6f7;stop-opacity:1" offset=".453"/><stop style="stop-color:#46c7f7;stop-opacity:1" offset=".469"/><stop style="stop-color:#47c8f6;stop-opacity:1" offset=".484"/><stop style="stop-color:#47c8f6;stop-opacity:1" offset=".5"/><stop style="stop-color:#48c9f6;stop-opacity:1" offset=".516"/><stop style="stop-color:#48caf5;stop-opacity:1" offset=".531"/><stop style="stop-color:#49caf5;stop-opacity:1" offset=".547"/><stop style="stop-color:#49cbf5;stop-opacity:1" offset=".563"/><stop style="stop-color:#4acbf5;stop-opacity:1" offset=".578"/><stop style="stop-color:#4accf4;stop-opacity:1" offset=".594"/><stop style="stop-color:#4bcdf4;stop-opacity:1" offset=".609"/><stop style="stop-color:#4ccdf4;stop-opacity:1" offset=".625"/><stop style="stop-color:#4ccef3;stop-opacity:1" offset=".641"/><stop style="stop-color:#4dcff3;stop-opacity:1" offset=".656"/><stop style="stop-color:#4dcff3;stop-opacity:1" offset=".672"/><stop style="stop-color:#4ed0f2;stop-opacity:1" offset=".688"/><stop style="stop-color:#4ed1f2;stop-opacity:1" offset=".703"/><stop style="stop-color:#4fd1f2;stop-opacity:1" offset=".719"/><stop style="stop-color:#4fd2f1;stop-opacity:1" offset=".734"/><stop style="stop-color:#50d3f1;stop-opacity:1" offset=".75"/><stop style="stop-color:#50d3f1;stop-opacity:1" offset=".766"/><stop style="stop-color:#51d4f0;stop-opacity:1" offset=".781"/><stop style="stop-color:#52d5f0;stop-opacity:1" offset=".797"/><stop style="stop-color:#52d5f0;stop-opacity:1" offset=".813"/><stop style="stop-color:#53d6ef;stop-opacity:1" offset=".828"/><stop style="stop-color:#53d6ef;stop-opacity:1" offset=".844"/><stop style="stop-color:#54d7ef;stop-opacity:1" offset=".859"/><stop style="stop-color:#54d8ef;stop-opacity:1" offset=".875"/><stop style="stop-color:#55d8ee;stop-opacity:1" offset=".891"/><stop style="stop-color:#55d9ee;stop-opacity:1" offset=".906"/><stop style="stop-color:#56daee;stop-opacity:1" offset=".922"/><stop style="stop-color:#56daed;stop-opacity:1" offset=".938"/><stop style="stop-color:#57dbed;stop-opacity:1" offset="1"/></linearGradient></defs><g style="fill:#111827;fill-opacity:1"><path style="stroke:none" d="M2.297-14.094H8.03c1.489 0 2.801.305 3.938.906 1.144.594 2.031 1.43 2.656 2.5.633 1.063.953 2.278.953 3.641 0 1.375-.32 2.594-.953 3.656-.625 1.063-1.512 1.899-2.656 2.5C10.832-.297 9.519 0 8.03 0H2.297zM7.953-1.28c1.227 0 2.305-.242 3.234-.735.926-.488 1.645-1.164 2.157-2.03.508-.876.765-1.876.765-3 0-1.126-.257-2.118-.765-2.985-.512-.864-1.23-1.54-2.156-2.031-.93-.489-2.008-.735-3.235-.735H3.781V-1.28zm0 0" transform="translate(39.993 146.592)"/></g><g style="fill:#111827;fill-opacity:1"><path style="stroke:none" d="M12.25-1.281V0H2.297v-14.094h9.656v1.297H3.781v5.016h7.281v1.265h-7.28v5.235zm0 0" transform="translate(58.841 146.592)"/></g><g style="fill:#111827;fill-opacity:1"><path style="stroke:none" d="M11.906 0 8.687-4.531c-.355.043-.73.062-1.124.062H3.78V0H2.297v-14.094h5.265c1.801 0 3.211.434 4.235 1.297 1.02.856 1.531 2.04 1.531 3.547 0 1.094-.281 2.023-.844 2.781-.554.762-1.343 1.309-2.375 1.64L13.547 0zM7.531-5.734c1.395 0 2.457-.305 3.188-.922.738-.625 1.11-1.489 1.11-2.594 0-1.145-.372-2.02-1.11-2.625-.73-.613-1.793-.922-3.188-.922h-3.75v7.063zm0 0" transform="translate(74.531 146.592)"/></g><g style="fill:#111827;fill-opacity:1"><path style="stroke:none" d="M14.594-14.094V0h-3.266v-5.781h-6.39V0H1.671v-14.094h3.266v5.563h6.39v-5.563zm0 0" transform="translate(98.814 146.592)"/></g><g style="fill:#111827;fill-opacity:1"><path style="stroke:none" d="M1.672-14.094h3.266V0H1.671zm0 0" transform="translate(117.3 146.592)"/></g><g style="fill:#111827;fill-opacity:1"><path style="stroke:none" d="M1.672-14.094h3.266v11.438H12V0H1.672zm0 0" transform="translate(126.132 146.592)"/></g><g style="fill:#111827;fill-opacity:1"><path style="stroke:none" d="M4.938-11.469v3.719h6.515v2.625H4.938V0H1.671v-14.094h10.64v2.625zm0 0" transform="translate(140.514 146.592)"/></g><g style="fill:#111827;fill-opacity:1"><path style="stroke:none" d="M6.297.234C5.18.234 4.102.082 3.063-.219 2.03-.519 1.194-.91.563-1.39l1.109-2.453c.601.438 1.32.793 2.156 1.063.832.273 1.66.406 2.485.406.925 0 1.609-.133 2.046-.406.446-.281.672-.649.672-1.11 0-.332-.133-.609-.39-.828-.262-.218-.594-.394-1-.531-.407-.133-.961-.285-1.657-.453-1.086-.25-1.968-.5-2.656-.75a4.322 4.322 0 0 1-1.75-1.234C1.086-8.25.844-9 .844-9.938c0-.82.219-1.563.656-2.22.445-.663 1.113-1.19 2-1.577.895-.395 1.988-.594 3.281-.594.895 0 1.77.11 2.625.328.864.21 1.617.516 2.266.922l-1 2.469c-1.305-.739-2.606-1.11-3.906-1.11-.918 0-1.594.153-2.032.453-.437.293-.656.68-.656 1.157 0 .492.25.855.75 1.093.508.23 1.281.461 2.313.688 1.07.25 1.953.508 2.64.765.688.25 1.274.653 1.766 1.204.488.554.734 1.296.734 2.234 0 .805-.23 1.54-.687 2.203-.45.668-1.121 1.195-2.016 1.578C8.68.04 7.586.234 6.297.234zm0 0" transform="translate(155.601 146.592)"/></g><g style="fill:#111827;fill-opacity:1"><path style="stroke:none" d="m14.484 0-.015-8.453-4.14 6.969h-1.47L4.734-8.266V0H1.672v-14.094h2.687l5.282 8.766 5.187-8.766h2.688L17.546 0zm0 0" transform="translate(170.668 146.592)"/></g><g style="fill:#111827;fill-opacity:1"><path style="stroke:none" d="M1.672-14.094h3.266V0H1.671zm0 0" transform="translate(192.11 146.592)"/></g><g style="fill:#111827;fill-opacity:1"><path style="stroke:none" d="M4.594-11.438H.078v-2.656H12.36v2.656H7.844V0h-3.25zm0 0" transform="translate(200.942 146.592)"/></g><g style="fill:#111827;fill-opacity:1"><path style="stroke:none" d="M4.594-11.438H.078v-2.656H12.36v2.656H7.844V0h-3.25zm0 0" transform="translate(215.606 146.592)"/></g><g style="fill:#111827;fill-opacity:1"><path style="stroke:none" d="M12.578-2.61V0H1.672v-14.094h10.64v2.625H4.907v3.063h6.547v2.531H4.906v3.266zm0 0" transform="translate(230.27 146.592)"/></g><g style="fill:#111827;fill-opacity:1"><path style="stroke:none" d="M1.672-14.094h3.266v11.438H12V0H1.672zm0 0" transform="translate(246 146.592)"/></g><g style="fill:#111827;fill-opacity:1"><path style="stroke:none" d="M12.016-7.328c.8.262 1.43.687 1.89 1.281.457.594.688 1.328.688 2.203 0 1.23-.48 2.18-1.438 2.844-.96.668-2.36 1-4.203 1H1.672v-14.094h6.875c1.719 0 3.035.336 3.953 1 .926.656 1.39 1.547 1.39 2.672 0 .688-.167 1.305-.5 1.844-.324.531-.78.95-1.374 1.25zm-7.11-4.297v3.313h3.25c.801 0 1.41-.141 1.828-.422.414-.282.625-.696.625-1.25 0-.551-.21-.961-.625-1.235-.418-.27-1.027-.406-1.828-.406zM8.72-2.453c.851 0 1.5-.14 1.937-.422.438-.281.656-.719.656-1.313 0-1.164-.867-1.75-2.593-1.75H4.906v3.485zm0 0" transform="translate(260.383 146.592)"/></g><g style="fill:#111827;fill-opacity:1"><path style="stroke:none" d="M12.578-2.61V0H1.672v-14.094h10.64v2.625H4.907v3.063h6.547v2.531H4.906v3.266zm0 0" transform="translate(278.004 146.592)"/></g><g style="fill:#111827;fill-opacity:1"><path style="stroke:none" d="M10.64 0 7.923-3.922H4.938V0H1.671v-14.094h6.094c1.25 0 2.332.211 3.25.625.914.418 1.625 1.012 2.125 1.781.5.762.75 1.668.75 2.72 0 1.042-.258 1.945-.766 2.702-.5.762-1.215 1.34-2.14 1.735L14.14 0zm-.062-8.969c0-.789-.258-1.398-.765-1.828-.5-.426-1.243-.64-2.22-.64H4.939v4.921h2.656c.976 0 1.718-.21 2.218-.64.508-.438.766-1.04.766-1.813zm0 0" transform="translate(293.735 146.592)"/></g><g style="fill:#111827;fill-opacity:1"><path style="stroke:none" d="M10.953-3.016H4.406L3.156 0H-.188l6.282-14.094h3.218L15.61 0h-3.406zM9.922-5.5l-2.235-5.39L5.454-5.5zm0 0" transform="translate(310.752 146.592)"/></g><g style="fill:#111827;fill-opacity:1"><path style="stroke:none" d="M4.594-11.438H.078v-2.656H12.36v2.656H7.844V0h-3.25zm0 0" transform="translate(328.393 146.592)"/></g><g style="fill:#111827;fill-opacity:1"><path style="stroke:none" d="M12.578-2.61V0H1.672v-14.094h10.64v2.625H4.907v3.063h6.547v2.531H4.906v3.266zm0 0" transform="translate(343.058 146.592)"/></g><g style="fill:#111827;fill-opacity:1"><path style="stroke:none" d="M10.64 0 7.923-3.922H4.938V0H1.671v-14.094h6.094c1.25 0 2.332.211 3.25.625.914.418 1.625 1.012 2.125 1.781.5.762.75 1.668.75 2.72 0 1.042-.258 1.945-.766 2.702-.5.762-1.215 1.34-2.14 1.735L14.14 0zm-.062-8.969c0-.789-.258-1.398-.765-1.828-.5-.426-1.243-.64-2.22-.64H4.939v4.921h2.656c.976 0 1.718-.21 2.218-.64.508-.438.766-1.04.766-1.813zm0 0" transform="translate(358.788 146.592)"/></g><g clip-path="url(#a)"><g clip-path="url(#b)"><g clip-path="url(#c)"><g clip-path="url(#d)"><g clip-path="url(#e)"><path style="stroke:none;fill-rule:nonzero;fill:url(#f)" d="m64.129 16.594 5.629 71.27 71.27-5.626-5.626-71.273zm0 0"/></g></g></g></g></g><g clip-path="url(#g)"><g clip-path="url(#h)"><g clip-path="url(#i)"><g clip-path="url(#j)"><g clip-path="url(#k)"><path style="stroke:none;fill-rule:nonzero;fill:url(#l)" d="m51.11 70.219 3.495 44.25 44.25-3.492-3.496-44.25zm0 0"/></g></g></g></g></g><g clip-path="url(#m)"><g clip-path="url(#n)"><g clip-path="url(#o)"><path style="stroke:none;fill-rule:nonzero;fill:#111827;fill-opacity:1" d="M81.523 83.121a3.558 3.558 0 1 0-7.093.563 3.558 3.558 0 0 0 7.093-.563zm-10.566.836a3.563 3.563 0 0 0-3.828-3.27 3.563 3.563 0 0 0-3.27 3.829 3.563 3.563 0 0 0 3.828 3.27 3.561 3.561 0 0 0 3.27-3.829zm-10.57.836a3.558 3.558 0 1 0-7.094.559 3.553 3.553 0 0 0 3.828 3.265 3.554 3.554 0 0 0 3.266-3.824zm5.082-25.106c7.254-.574 13.12 1.094 16.965 4.813 2.046 1.988 1.48 4.262.37 5.605-1.511 1.832-4.488 2.665-7.726.395a34.873 34.873 0 0 1-9.992-10.781c.129-.012.258-.02.383-.032zm20.023 58.45c.426-.235.684-.692.668-1.176l-.508-15.547a25.829 25.829 0 0 0 7.157-13.371 1.295 1.295 0 1 0-2.543-.5c-.934 4.75-3.293 9.039-6.825 12.402-.265.258-.41.614-.398.98l.441 13.595-12.113-8.125a1.276 1.276 0 0 0-.894-.211c-.48.066-.915.113-1.325.148-12.859 1.012-24.148-8.621-25.164-21.48-.93-11.793 7.098-22.266 18.352-24.704 2.758 4.93 6.57 9.2 11.254 12.477 4.566 3.2 9.011 1.793 11.207-.867 2.316-2.805 2.082-6.551-.567-9.117-3.062-2.97-8.84-6.336-18.968-5.536-.508.04-1.012.094-1.512.165-2.07-4.18-3.356-8.805-3.738-13.668C58.418 23.352 73.59 5.574 93.844 3.977c20.25-1.598 38.027 13.574 39.625 33.828.875 11.097-3.25 21.875-11.324 29.574-.266.254-.41.61-.399.976l.73 22.372-19.855-13.317a1.291 1.291 0 0 0-1.797.352 1.3 1.3 0 0 0 .356 1.8l21.953 14.723a1.293 1.293 0 0 0 2.016-1.117l-.794-24.32c8.36-8.207 12.618-19.563 11.696-31.246C134.34 15.922 115.313-.32 93.637 1.39 71.96 3.105 55.723 22.129 57.434 43.809c.39 4.941 1.656 9.664 3.683 13.96-12.148 2.977-20.726 14.422-19.71 27.286 1.128 14.285 13.667 24.988 27.948 23.86.313-.024.637-.06.977-.099l13.809 9.262c.25.168.539.238.824.219.183-.016.363-.07.527-.16zm27.766-80.043a4.024 4.024 0 0 0-4.332-3.696 4.026 4.026 0 1 0 4.332 3.695zm-11.957.945a4.029 4.029 0 1 0-8.03.635 4.029 4.029 0 0 0 8.03-.635zm-15.656 5.277a4.027 4.027 0 0 1-4.332-3.699 4.026 4.026 0 1 1 8.027-.633 4.029 4.029 0 0 1-3.695 4.332"/></g></g></g><g style="fill:#111827;fill-opacity:1"><path style="stroke:none" d="M19.516.75C16.055.75 12.719.281 9.5-.656c-3.219-.938-5.805-2.149-7.75-3.64l3.422-7.61c1.875 1.375 4.098 2.48 6.672 3.312 2.57.824 5.148 1.235 7.734 1.235 2.863 0 4.977-.422 6.344-1.266 1.375-.852 2.062-1.988 2.062-3.406 0-1.04-.406-1.899-1.218-2.578-.813-.688-1.856-1.239-3.125-1.657-1.262-.414-2.97-.875-5.125-1.375-3.325-.789-6.047-1.578-8.172-2.359-2.117-.79-3.934-2.055-5.453-3.797-1.512-1.75-2.266-4.082-2.266-7 0-2.531.68-4.82 2.047-6.875 1.375-2.062 3.441-3.691 6.203-4.89 2.758-1.208 6.133-1.813 10.125-1.813 2.79 0 5.516.336 8.172 1 2.656.656 4.984 1.61 6.984 2.86l-3.125 7.671C29-35.133 24.97-36.28 20.938-36.28c-2.825 0-4.915.46-6.266 1.375-1.344.918-2.016 2.125-2.016 3.625 0 1.492.774 2.601 2.328 3.328 1.563.73 3.942 1.45 7.141 2.156 3.32.781 6.04 1.57 8.156 2.36a13.47 13.47 0 0 1 5.453 3.75c1.52 1.699 2.282 4 2.282 6.906 0 2.5-.7 4.781-2.094 6.844-1.387 2.054-3.469 3.683-6.25 4.89C26.89.148 23.504.75 19.516.75zm0 0" transform="translate(139.168 106.713)"/></g><g style="fill:#111827;fill-opacity:1"><path style="stroke:none" d="M24.313-34.031c3.113 0 5.945.718 8.5 2.156 2.562 1.43 4.566 3.445 6.015 6.047 1.457 2.594 2.188 5.617 2.188 9.062 0 3.45-.73 6.477-2.188 9.078-1.45 2.594-3.453 4.61-6.016 6.047C30.259-.21 27.427.5 24.313.5c-4.28 0-7.652-1.348-10.109-4.047v15.64H4.484V-33.53h9.297v3.86c2.406-2.907 5.914-4.36 10.531-4.36zM22.625-7.484c2.488 0 4.531-.836 6.125-2.516 1.602-1.688 2.406-3.941 2.406-6.766 0-2.82-.804-5.07-2.406-6.75-1.594-1.687-3.637-2.53-6.125-2.53-2.492 0-4.54.843-6.14 2.53-1.594 1.68-2.391 3.93-2.391 6.75 0 2.825.797 5.078 2.39 6.766 1.602 1.68 3.649 2.516 6.141 2.516zm0 0" transform="translate(178.936 106.713)"/></g><g style="fill:#111827;fill-opacity:1"><path style="stroke:none" d="M37.328-16.64c0 .124-.062.995-.187 2.609H11.78c.457 2.086 1.535 3.73 3.235 4.937 1.707 1.2 3.828 1.797 6.359 1.797 1.75 0 3.297-.254 4.64-.766 1.352-.519 2.614-1.343 3.782-2.468l5.172 5.61C31.812-1.306 27.195.5 21.125.5 17.344.5 14-.234 11.094-1.703 8.188-3.18 5.94-5.227 4.359-7.843 2.785-10.47 2-13.442 2-16.767c0-3.28.773-6.238 2.328-8.875 1.563-2.644 3.703-4.703 6.422-6.172 2.719-1.476 5.758-2.218 9.125-2.218 3.29 0 6.266.71 8.922 2.125 2.656 1.406 4.738 3.433 6.25 6.078 1.52 2.637 2.281 5.7 2.281 9.187zm-17.39-10.032c-2.2 0-4.047.625-5.547 1.875-1.493 1.242-2.403 2.938-2.735 5.094h16.516c-.336-2.113-1.25-3.8-2.75-5.063-1.492-1.27-3.32-1.906-5.485-1.906zm0 0" transform="translate(221.945 106.713)"/></g><g style="fill:#111827;fill-opacity:1"><path style="stroke:none" d="M18.016-34.031c5.187 0 9.172 1.242 11.953 3.718 2.789 2.47 4.187 6.196 4.187 11.172V0h-9.093v-4.172C23.227-1.055 19.816.5 14.828.5 12.254.5 10.02.062 8.125-.813 6.238-1.688 4.797-2.89 3.797-4.421 2.805-5.96 2.312-7.707 2.312-9.656c0-3.114 1.172-5.567 3.516-7.36 2.344-1.789 5.969-2.687 10.875-2.687h7.735c0-2.113-.649-3.738-1.938-4.875-1.293-1.145-3.227-1.719-5.797-1.719-1.781 0-3.539.281-5.265.844-1.731.555-3.196 1.308-4.391 2.265l-3.5-6.796c1.832-1.282 4.023-2.274 6.578-2.985a29.525 29.525 0 0 1 7.89-1.062zm-.75 27.984c1.664 0 3.14-.383 4.422-1.156 1.289-.77 2.207-1.899 2.75-3.39v-3.438h-6.672c-3.993 0-5.985 1.312-5.985 3.937 0 1.242.485 2.227 1.453 2.953.977.73 2.32 1.094 4.032 1.094zm0 0" transform="translate(261.276 106.713)"/></g><g style="fill:#111827;fill-opacity:1"><path style="stroke:none" d="m18.89-13.156-4.687 4.625V0H4.484v-46.25h9.72v26.188l14.218-13.47h11.594l-13.97 14.204L41.267 0H29.484zm0 0" transform="translate(299.734 106.713)"/></g><g style="fill:#111827;fill-opacity:1"><path style="stroke:none" d="M4.484-33.531h9.72V0h-9.72zm4.86-4.672c-1.781 0-3.235-.52-4.36-1.563-1.125-1.039-1.687-2.328-1.687-3.859 0-1.54.562-2.828 1.687-3.86 1.125-1.038 2.579-1.562 4.36-1.562 1.789 0 3.242.5 4.36 1.5 1.124.992 1.687 2.234 1.687 3.734 0 1.618-.563 2.954-1.688 4.016-1.117 1.063-2.57 1.594-4.36 1.594zm0 0" transform="translate(340.873 106.713)"/></g><g style="fill:#111827;fill-opacity:1"><path style="stroke:none" d="M4.484-33.531h9.72V0h-9.72zm4.86-4.672c-1.781 0-3.235-.52-4.36-1.563-1.125-1.039-1.687-2.328-1.687-3.859 0-1.54.562-2.828 1.687-3.86 1.125-1.038 2.579-1.562 4.36-1.562 1.789 0 3.242.5 4.36 1.5 1.124.992 1.687 2.234 1.687 3.734 0 1.618-.563 2.954-1.688 4.016-1.117 1.063-2.57 1.594-4.36 1.594zm0 0" transform="translate(359.635 106.713)"/></g></svg>